<svg id="Layer_1" data-name="Layer 1" xmlns="http://www.w3.org/2000/svg" xmlns:xlink="http://www.w3.org/1999/xlink" viewBox="0 0 184.25 184.35"><defs><style>.cls-1{fill:none;}.cls-2{fill:#e5e5e5;}.cls-3{fill:#134c89;}.cls-4{fill:#ed2024;}.cls-5{clip-path:url(#clip-path);}.cls-6{clip-path:url(#clip-path-3);}.cls-7{fill:#134a87;}.cls-8{clip-path:url(#clip-path-5);}.cls-9{clip-path:url(#clip-path-7);}</style><clipPath id="clip-path" transform="translate(-328.49 -205.06)"><rect class="cls-1" x="443.56" y="289.8" width="55.04" height="66.05"/></clipPath><clipPath id="clip-path-3" transform="translate(-328.49 -205.06)"><rect class="cls-1" x="377.3" y="218.21" width="55.04" height="66.05"/></clipPath><clipPath id="clip-path-5" transform="translate(-328.49 -205.06)"><rect class="cls-1" x="409.46" y="257.06" width="55.04" height="66.05"/></clipPath><clipPath id="clip-path-7" transform="translate(-328.49 -205.06)"><rect class="cls-1" x="343.2" y="271.26" width="55.04" height="66.05"/></clipPath></defs><rect class="cls-2" y="0.1" width="184.25" height="184.25" rx="8.58"/><rect class="cls-3" width="108.5" height="184.35" rx="8.58"/><rect class="cls-2" x="404.62" y="259.13" width="52.36" height="65.68" rx="4.44" transform="translate(-101.62 -391.89) rotate(32.8)"/><rect class="cls-4" x="454.04" y="353.94" width="33.18" height="35.47" transform="translate(612.78 538.29) rotate(-180)"/><g class="cls-5"><path class="cls-4" d="M478.36,302.08l7.82-3.92-5-7.5a1.93,1.93,0,0,0-2.66-.55l-4,2.61a1.93,1.93,0,0,0-.56,2.7Zm-4.44-6.66" transform="translate(-328.49 -205.06)"/></g><path class="cls-4" d="M474.87,303.82l-4.23-6.34a1.93,1.93,0,0,0-2.66-.55l-4,2.61a1.93,1.93,0,0,0-.56,2.7l3.66,5.5ZM467,307.74" transform="translate(-328.49 -205.06)"/><g class="cls-5"><path class="cls-4" d="M466.16,317.47a1.93,1.93,0,0,0,.83-2.84L460.1,304.3a1.93,1.93,0,0,0-2.66-.55l-3.21,2.07a1.93,1.93,0,0,0-.56,2.7l6.55,9.83a1.94,1.94,0,0,0,2.4.7l3.54-1.58Zm0,0" transform="translate(-328.49 -205.06)"/><path class="cls-4" d="M444.52,312.11a1.92,1.92,0,0,0-.56,2.69l5.54,8.32a1.94,1.94,0,0,0,2.4.69l3.54-1.57a1.94,1.94,0,0,0,.83-2.84l-5.88-8.82a1.93,1.93,0,0,0-2.66-.55l-3.21,2.08Zm0,0" transform="translate(-328.49 -205.06)"/><path class="cls-4" d="M451.11,327.85a5.82,5.82,0,0,1-4.24-1.84v5.66a11.4,11.4,0,0,0,5.09,9.5l1.2.8a1.94,1.94,0,0,1,.86,1.61v10.33a1.93,1.93,0,0,0,1.94,1.93h29.26a1.94,1.94,0,0,0,1.88-2.4l-3.54-14.15a2,2,0,0,1,.32-1.62l14.26-19.26a1.92,1.92,0,0,0,.06-2.22l-8.9-13.36a2,2,0,0,0-2.48-.66L471.17,310a1.93,1.93,0,0,0-.75,2.8l1.19,1.78a1.91,1.91,0,0,0,1.6.86h12.23a1.94,1.94,0,0,1,1.93,2,2,2,0,0,1-2,1.84H477.1l-9,17.94a2,2,0,0,1-2.53,1,1.94,1.94,0,0,1-1-2.64l8.13-16.26h-1.23l-18.08,8a5.8,5.8,0,0,1-2.35.5Zm0,0" transform="translate(-328.49 -205.06)"/></g><rect class="cls-2" x="387.74" y="280.08" width="33.18" height="109.33" transform="translate(480.17 464.43) rotate(-180)"/><g class="cls-6"><path class="cls-2" d="M412.1,230.49l7.82-3.91-5-7.51a1.93,1.93,0,0,0-2.66-.55l-4,2.61a1.93,1.93,0,0,0-.56,2.7Zm-4.44-6.66" transform="translate(-328.49 -205.06)"/></g><path class="cls-2" d="M408.61,232.23l-4.23-6.34a1.93,1.93,0,0,0-2.66-.55L397.67,228a1.94,1.94,0,0,0-.55,2.7l3.66,5.5Zm-7.83,3.92" transform="translate(-328.49 -205.06)"/><g class="cls-6"><path class="cls-2" d="M399.9,245.88a1.93,1.93,0,0,0,.83-2.84l-6.89-10.33a1.93,1.93,0,0,0-2.66-.55L388,234.24a1.92,1.92,0,0,0-.56,2.69l6.55,9.83a1.94,1.94,0,0,0,2.4.7l3.54-1.58Zm0,0" transform="translate(-328.49 -205.06)"/><path class="cls-2" d="M378.26,240.52a1.93,1.93,0,0,0-.56,2.7l5.54,8.31a1.93,1.93,0,0,0,2.4.69l3.54-1.57a1.94,1.94,0,0,0,.83-2.84L384.13,239a1.94,1.94,0,0,0-2.66-.55l-3.21,2.08Zm0,0" transform="translate(-328.49 -205.06)"/><path class="cls-2" d="M384.85,256.26a5.82,5.82,0,0,1-4.24-1.84v5.66a11.38,11.38,0,0,0,5.09,9.5l1.2.8a1.94,1.94,0,0,1,.86,1.61v10.33a1.94,1.94,0,0,0,1.93,1.94H419a1.94,1.94,0,0,0,1.88-2.41L417.3,267.7a2,2,0,0,1,.32-1.62l14.26-19.26a1.92,1.92,0,0,0,.06-2.22L423,231.24a1.92,1.92,0,0,0-2.47-.65l-15.66,7.82a1.94,1.94,0,0,0-.74,2.81l1.18,1.77a1.94,1.94,0,0,0,1.61.86h12.23a1.94,1.94,0,0,1,1.93,2,2,2,0,0,1-2,1.84h-8.28l-9,17.94a2,2,0,0,1-2.53,1,1.94,1.94,0,0,1-.95-2.64l8.13-16.26h-1.23l-18.08,8a5.81,5.81,0,0,1-2.36.5Zm0,0" transform="translate(-328.49 -205.06)"/></g><rect class="cls-7" x="420.87" y="321.14" width="33.18" height="68.27" transform="translate(546.43 505.49) rotate(-180)"/><g class="cls-8"><path class="cls-7" d="M434.14,262.68a1.93,1.93,0,0,0-.56-2.7l-4-2.61a1.93,1.93,0,0,0-2.66.55l-5,7.51,7.82,3.91Zm0,0" transform="translate(-328.49 -205.06)"/></g><path class="cls-7" d="M441,275l3.66-5.5a1.93,1.93,0,0,0-.56-2.7l-4-2.61a1.93,1.93,0,0,0-2.66.55l-4.23,6.34Zm0,0" transform="translate(-328.49 -205.06)"/><g class="cls-8"><path class="cls-7" d="M441.9,284.73l3.54,1.58a2,2,0,0,0,2.4-.69l6.55-9.84a1.92,1.92,0,0,0-.56-2.69L450.62,271a1.93,1.93,0,0,0-2.66.55l-6.89,10.33a1.93,1.93,0,0,0,.83,2.84Zm0,0" transform="translate(-328.49 -205.06)"/><path class="cls-7" d="M463.54,279.37l-3.21-2.08a1.94,1.94,0,0,0-2.66.55l-5.88,8.82a1.94,1.94,0,0,0,.83,2.84l3.54,1.57a1.94,1.94,0,0,0,2.4-.69l5.54-8.31a1.93,1.93,0,0,0-.56-2.7Zm0,0" transform="translate(-328.49 -205.06)"/><path class="cls-7" d="M457,295.11h0a5.81,5.81,0,0,1-2.36-.5l-18.08-8h-1.23l8.13,16.26a1.94,1.94,0,0,1-1,2.64,2,2,0,0,1-2.53-1l-9-17.94h-8.28a2,2,0,0,1-2-1.84,1.94,1.94,0,0,1,1.93-2h12.23a1.94,1.94,0,0,0,1.61-.86l1.18-1.77a1.94,1.94,0,0,0-.74-2.81l-15.66-7.82a1.92,1.92,0,0,0-2.47.65l-8.91,13.36a1.92,1.92,0,0,0,.06,2.22l14.26,19.26a2,2,0,0,1,.32,1.62L421,320.7a1.94,1.94,0,0,0,1.88,2.41H452.1a1.94,1.94,0,0,0,1.94-1.94V310.84a1.91,1.91,0,0,1,.86-1.6l1.2-.81a11.38,11.38,0,0,0,5.09-9.5v-5.66a5.79,5.79,0,0,1-4.24,1.84Zm0,0" transform="translate(-328.49 -205.06)"/></g><rect class="cls-4" x="354.58" y="334.75" width="33.18" height="54.66" transform="translate(413.85 519.09) rotate(-180)"/><g class="cls-9"><path class="cls-4" d="M367.88,276.88a1.92,1.92,0,0,0-.56-2.69l-4-2.62a1.94,1.94,0,0,0-2.66.55l-5,7.51,7.83,3.91Zm0,0" transform="translate(-328.49 -205.06)"/></g><path class="cls-4" d="M374.76,289.2l3.66-5.49a1.93,1.93,0,0,0-.56-2.7l-4-2.62a1.94,1.94,0,0,0-2.66.55l-4.23,6.35Zm0,0" transform="translate(-328.49 -205.06)"/><g class="cls-9"><path class="cls-4" d="M375.63,298.94l3.55,1.57a1.92,1.92,0,0,0,2.39-.69l6.56-9.83a1.93,1.93,0,0,0-.56-2.7l-3.21-2.08a1.94,1.94,0,0,0-2.66.55l-6.89,10.34a1.93,1.93,0,0,0,.82,2.84Zm0,0" transform="translate(-328.49 -205.06)"/><path class="cls-4" d="M397.28,293.57l-3.21-2.08a1.94,1.94,0,0,0-2.66.56l-5.88,8.81a1.93,1.93,0,0,0,.82,2.84l3.55,1.58a1.93,1.93,0,0,0,2.39-.7l5.55-8.31a1.94,1.94,0,0,0-.56-2.7Zm0,0" transform="translate(-328.49 -205.06)"/><path class="cls-4" d="M390.68,309.31h0a5.61,5.61,0,0,1-2.35-.5l-18.09-8H369L377.15,317a1.93,1.93,0,0,1-.95,2.63,2,2,0,0,1-2.54-.95l-9-17.94h-8.27a2,2,0,0,1-2-1.84,1.93,1.93,0,0,1,1.93-2h12.22a2,2,0,0,0,1.61-.86l1.19-1.78a1.94,1.94,0,0,0-.75-2.8L355,283.64a1.93,1.93,0,0,0-2.48.66l-8.9,13.35a2,2,0,0,0,0,2.23l14.27,19.25a2,2,0,0,1,.32,1.62l-3.54,14.16a1.93,1.93,0,0,0,1.88,2.4h29.26a1.94,1.94,0,0,0,1.94-1.94V325.05a1.93,1.93,0,0,1,.86-1.61l1.2-.81a11.39,11.39,0,0,0,5.08-9.49v-5.67a5.75,5.75,0,0,1-4.24,1.84Zm0,0" transform="translate(-328.49 -205.06)"/></g></svg>