<svg width="19" height="19" viewBox="0 0 19 19" fill="none" xmlns="http://www.w3.org/2000/svg">
<path d="M8.2803 16.3787H11.553C11.553 16.8127 11.3806 17.2289 11.0737 17.5358C10.7669 17.8427 10.3507 18.0151 9.91666 18.0151C9.48267 18.0151 9.06646 17.8427 8.75958 17.5358C8.4527 17.2289 8.2803 16.8127 8.2803 16.3787ZM17.2803 14.7423V15.5605H2.55303V14.7423L4.1894 13.106V8.19688C4.1894 5.66052 5.8503 3.42689 8.2803 2.70689V2.46961C8.2803 2.03562 8.4527 1.61941 8.75958 1.31253C9.06646 1.00565 9.48267 0.833252 9.91666 0.833252C10.3507 0.833252 10.7669 1.00565 11.0737 1.31253C11.3806 1.61941 11.553 2.03562 11.553 2.46961V2.70689C13.983 3.42689 15.6439 5.66052 15.6439 8.19688V13.106L17.2803 14.7423ZM14.0076 8.19688C14.0076 7.11191 13.5766 6.07137 12.8094 5.30418C12.0422 4.53698 11.0016 4.10598 9.91666 4.10598C8.83169 4.10598 7.79115 4.53698 7.02396 5.30418C6.25676 6.07137 5.82576 7.11191 5.82576 8.19688V13.9242H14.0076V8.19688ZM16.2576 1.80689L15.0958 2.9687C15.7877 3.65223 16.3372 4.46632 16.7122 5.36379C17.0872 6.26125 17.2803 7.22423 17.2803 8.19688H18.9167C18.9167 5.79961 17.9676 3.49234 16.2576 1.80689ZM0.916672 8.19688H2.55303C2.55303 6.23325 3.33849 4.35143 4.73758 2.9687L3.57576 1.80689C2.7313 2.64272 2.06136 3.63803 1.60488 4.735C1.14839 5.83197 0.91446 7.00872 0.916672 8.19688Z" fill="#858E8E"/>
</svg>
