<svg width="400" height="49" viewBox="0 0 400 49" fill="none" xmlns="http://www.w3.org/2000/svg">
<rect width="400" height="49.0066" rx="10.596" fill="#413F7C"/>
<path d="M79.8888 29.9204V16.9403H85.563C86.9722 16.9403 88.2084 17.2122 89.2716 17.7562C90.3347 18.3001 91.163 19.0542 91.7563 20.0184C92.3497 20.9827 92.6464 22.12 92.6464 23.4303C92.6464 24.7284 92.3497 25.8657 91.7563 26.8423C91.163 27.8065 90.3347 28.5606 89.2716 29.1045C88.2084 29.6484 86.9722 29.9204 85.563 29.9204H79.8888ZM82.2994 27.8807H85.4517C86.4283 27.8807 87.2689 27.6952 87.9736 27.3244C88.6906 26.9535 89.2407 26.4343 89.6239 25.7668C90.0195 25.0992 90.2173 24.3204 90.2173 23.4303C90.2173 22.5279 90.0195 21.7491 89.6239 21.0939C89.2407 20.4264 88.6906 19.9072 87.9736 19.5363C87.2689 19.1654 86.4283 18.98 85.4517 18.98H82.2994V27.8807ZM99.4364 30.0502C98.4227 30.0502 97.5202 29.8339 96.7291 29.4012C95.9379 28.9562 95.3136 28.3504 94.8562 27.584C94.3988 26.8175 94.1701 25.946 94.1701 24.9694C94.1701 23.9805 94.3988 23.1089 94.8562 22.3548C95.3136 21.5884 95.9379 20.9888 96.7291 20.5562C97.5202 20.1235 98.4227 19.9072 99.4364 19.9072C100.462 19.9072 101.371 20.1235 102.162 20.5562C102.966 20.9888 103.59 21.5822 104.035 22.3363C104.492 23.0904 104.721 23.9681 104.721 24.9694C104.721 25.946 104.492 26.8175 104.035 27.584C103.59 28.3504 102.966 28.9562 102.162 29.4012C101.371 29.8339 100.462 30.0502 99.4364 30.0502ZM99.4364 28.0661C100.005 28.0661 100.512 27.9425 100.957 27.6952C101.402 27.448 101.748 27.0895 101.995 26.6197C102.255 26.15 102.385 25.5999 102.385 24.9694C102.385 24.3266 102.255 23.7765 101.995 23.3191C101.748 22.8493 101.402 22.4908 100.957 22.2436C100.512 21.9963 100.011 21.8727 99.4549 21.8727C98.8862 21.8727 98.3794 21.9963 97.9344 22.2436C97.5017 22.4908 97.1556 22.8493 96.896 23.3191C96.6364 23.7765 96.5066 24.3266 96.5066 24.9694C96.5066 25.5999 96.6364 26.15 96.896 26.6197C97.1556 27.0895 97.5017 27.448 97.9344 27.6952C98.3794 27.9425 98.8801 28.0661 99.4364 28.0661ZM112.556 19.9072C113.347 19.9072 114.052 20.0617 114.67 20.3707C115.301 20.6798 115.795 21.1557 116.153 21.7986C116.512 22.429 116.691 23.2449 116.691 24.2462V29.9204H114.373V24.5429C114.373 23.6652 114.163 23.01 113.743 22.5774C113.335 22.1447 112.76 21.9284 112.018 21.9284C111.474 21.9284 110.992 22.0396 110.572 22.2621C110.152 22.4846 109.824 22.8184 109.589 23.2635C109.367 23.6961 109.255 24.2462 109.255 24.9138V29.9204H106.938V20.0184H109.144V22.6886L108.755 21.8727C109.101 21.2423 109.602 20.7601 110.257 20.4264C110.924 20.0802 111.691 19.9072 112.556 19.9072ZM125.732 29.9204V27.9178L125.602 27.4913V23.9866C125.602 23.3067 125.399 22.7813 124.991 22.4105C124.583 22.0273 123.965 21.8356 123.136 21.8356C122.58 21.8356 122.03 21.9222 121.486 22.0952C120.954 22.2683 120.503 22.5094 120.132 22.8184L119.224 21.131C119.755 20.7231 120.386 20.4202 121.115 20.2224C121.857 20.0122 122.623 19.9072 123.414 19.9072C124.848 19.9072 125.955 20.2533 126.734 20.9456C127.525 21.6255 127.92 22.6824 127.92 24.1164V29.9204H125.732ZM122.617 30.0502C121.875 30.0502 121.226 29.9266 120.67 29.6794C120.114 29.4197 119.681 29.0674 119.372 28.6224C119.075 28.165 118.927 27.652 118.927 27.0833C118.927 26.527 119.057 26.0264 119.316 25.5813C119.588 25.1363 120.027 24.784 120.633 24.5244C121.239 24.2648 122.042 24.135 123.044 24.135H125.918V25.6741H123.21C122.419 25.6741 121.888 25.8039 121.616 26.0635C121.344 26.3107 121.208 26.6197 121.208 26.9906C121.208 27.4109 121.375 27.7447 121.708 27.9919C122.042 28.2392 122.506 28.3628 123.099 28.3628C123.668 28.3628 124.175 28.233 124.62 27.9734C125.077 27.7138 125.405 27.3306 125.602 26.8237L125.992 28.2144C125.769 28.7955 125.368 29.2467 124.787 29.5681C124.218 29.8895 123.495 30.0502 122.617 30.0502ZM134.622 30.0502C133.534 30.0502 132.694 29.7721 132.1 29.2158C131.507 28.6471 131.21 27.8127 131.21 26.7125V17.8303H133.528V26.6568C133.528 27.1266 133.646 27.4913 133.881 27.7509C134.128 28.0105 134.468 28.1403 134.9 28.1403C135.42 28.1403 135.852 28.0043 136.198 27.7323L136.847 29.3827C136.575 29.6052 136.242 29.7721 135.846 29.8833C135.45 29.9946 135.043 30.0502 134.622 30.0502ZM129.579 21.9469V20.0926H136.18V21.9469H129.579ZM143.082 30.0502C141.982 30.0502 141.018 29.8339 140.19 29.4012C139.374 28.9562 138.737 28.3504 138.28 27.584C137.835 26.8175 137.612 25.946 137.612 24.9694C137.612 23.9805 137.829 23.1089 138.261 22.3548C138.706 21.5884 139.312 20.9888 140.079 20.5562C140.857 20.1235 141.741 19.9072 142.73 19.9072C143.694 19.9072 144.554 20.1173 145.308 20.5376C146.062 20.9579 146.655 21.5513 147.088 22.3178C147.52 23.0842 147.737 23.9866 147.737 25.025C147.737 25.1239 147.731 25.2352 147.718 25.3588C147.718 25.4824 147.712 25.5999 147.7 25.7111H139.448V24.1721H146.476L145.567 24.6542C145.58 24.0855 145.462 23.5849 145.215 23.1522C144.968 22.7195 144.628 22.3796 144.195 22.1323C143.775 21.8851 143.286 21.7615 142.73 21.7615C142.162 21.7615 141.661 21.8851 141.228 22.1323C140.808 22.3796 140.474 22.7257 140.227 23.1707C139.992 23.6034 139.875 24.1164 139.875 24.7098V25.0807C139.875 25.6741 140.011 26.1994 140.282 26.6568C140.554 27.1142 140.938 27.4665 141.432 27.7138C141.927 27.961 142.495 28.0846 143.138 28.0846C143.694 28.0846 144.195 27.9981 144.64 27.825C145.085 27.652 145.481 27.38 145.827 27.0092L147.069 28.437C146.624 28.9562 146.062 29.3579 145.382 29.6423C144.714 29.9142 143.948 30.0502 143.082 30.0502ZM157.276 29.9204L153.642 20.0184H155.83L158.945 28.7522H157.906L161.17 20.0184H163.117L166.288 28.7522H165.268L168.476 20.0184H170.534L166.881 29.9204H164.656L161.763 22.188H162.45L159.501 29.9204H157.276ZM172.128 29.9204V20.0184H174.446V29.9204H172.128ZM173.296 18.3866C172.864 18.3866 172.505 18.2507 172.221 17.9787C171.949 17.7067 171.813 17.3791 171.813 16.9959C171.813 16.6003 171.949 16.2727 172.221 16.0131C172.505 15.7412 172.864 15.6052 173.296 15.6052C173.729 15.6052 174.081 15.735 174.353 15.9946C174.637 16.2418 174.78 16.5571 174.78 16.9403C174.78 17.3482 174.644 17.6944 174.372 17.9787C174.1 18.2507 173.741 18.3866 173.296 18.3866ZM181.215 30.0502C180.127 30.0502 179.287 29.7721 178.693 29.2158C178.1 28.6471 177.803 27.8127 177.803 26.7125V17.8303H180.121V26.6568C180.121 27.1266 180.239 27.4913 180.474 27.7509C180.721 28.0105 181.061 28.1403 181.493 28.1403C182.013 28.1403 182.445 28.0043 182.791 27.7323L183.44 29.3827C183.168 29.6052 182.835 29.7721 182.439 29.8833C182.044 29.9946 181.636 30.0502 181.215 30.0502ZM176.172 21.9469V20.0926H182.773V21.9469H176.172ZM190.966 19.9072C191.757 19.9072 192.462 20.0617 193.08 20.3707C193.71 20.6798 194.205 21.1557 194.563 21.7986C194.922 22.429 195.101 23.2449 195.101 24.2462V29.9204H192.783V24.5429C192.783 23.6652 192.573 23.01 192.152 22.5774C191.745 22.1447 191.17 21.9284 190.428 21.9284C189.884 21.9284 189.402 22.0396 188.982 22.2621C188.561 22.4846 188.234 22.8184 187.999 23.2635C187.776 23.6961 187.665 24.2462 187.665 24.9138V29.9204H185.347V16.1615H187.665V22.6886L187.164 21.8727C187.511 21.2423 188.011 20.7601 188.666 20.4264C189.334 20.0802 190.1 19.9072 190.966 19.9072ZM206.021 29.9204V18.98H201.72V16.9403H212.734V18.98H208.432V29.9204H206.021ZM214.321 29.9204V20.0184H216.639V29.9204H214.321ZM215.489 18.3866C215.056 18.3866 214.698 18.2507 214.413 17.9787C214.141 17.7067 214.005 17.3791 214.005 16.9959C214.005 16.6003 214.141 16.2727 214.413 16.0131C214.698 15.7412 215.056 15.6052 215.489 15.6052C215.922 15.6052 216.274 15.735 216.546 15.9946C216.83 16.2418 216.972 16.5571 216.972 16.9403C216.972 17.3482 216.836 17.6944 216.564 17.9787C216.292 18.2507 215.934 18.3866 215.489 18.3866ZM221.572 27.7138L221.628 24.8025L226.801 20.0184H229.583L225.188 24.4317L223.964 25.4515L221.572 27.7138ZM219.681 29.9204V16.1615H221.999V29.9204H219.681ZM227.154 29.9204L223.538 25.4515L225.003 23.5972L229.972 29.9204H227.154ZM233.361 27.7138L233.416 24.8025L238.59 20.0184H241.371L236.977 24.4317L235.753 25.4515L233.361 27.7138ZM231.469 29.9204V16.1615H233.787V29.9204H231.469ZM238.942 29.9204L235.326 25.4515L236.791 23.5972L241.761 29.9204H238.942ZM243.258 29.9204V20.0184H245.576V29.9204H243.258ZM244.426 18.3866C243.994 18.3866 243.635 18.2507 243.351 17.9787C243.079 17.7067 242.943 17.3791 242.943 16.9959C242.943 16.6003 243.079 16.2727 243.351 16.0131C243.635 15.7412 243.994 15.6052 244.426 15.6052C244.859 15.6052 245.211 15.735 245.483 15.9946C245.767 16.2418 245.91 16.5571 245.91 16.9403C245.91 17.3482 245.774 17.6944 245.502 17.9787C245.23 18.2507 244.871 18.3866 244.426 18.3866ZM253.272 30.0502C252.172 30.0502 251.208 29.8339 250.38 29.4012C249.564 28.9562 248.927 28.3504 248.47 27.584C248.025 26.8175 247.802 25.946 247.802 24.9694C247.802 23.9805 248.019 23.1089 248.451 22.3548C248.896 21.5884 249.502 20.9888 250.268 20.5562C251.047 20.1235 251.931 19.9072 252.92 19.9072C253.884 19.9072 254.743 20.1173 255.498 20.5376C256.252 20.9579 256.845 21.5513 257.278 22.3178C257.71 23.0842 257.927 23.9866 257.927 25.025C257.927 25.1239 257.92 25.2352 257.908 25.3588C257.908 25.4824 257.902 25.5999 257.89 25.7111H249.638V24.1721H256.666L255.757 24.6542C255.769 24.0855 255.652 23.5849 255.405 23.1522C255.158 22.7195 254.818 22.3796 254.385 22.1323C253.965 21.8851 253.476 21.7615 252.92 21.7615C252.351 21.7615 251.851 21.8851 251.418 22.1323C250.998 22.3796 250.664 22.7257 250.417 23.1707C250.182 23.6034 250.064 24.1164 250.064 24.7098V25.0807C250.064 25.6741 250.2 26.1994 250.472 26.6568C250.744 27.1142 251.128 27.4665 251.622 27.7138C252.117 27.961 252.685 28.0846 253.328 28.0846C253.884 28.0846 254.385 27.9981 254.83 27.825C255.275 27.652 255.671 27.38 256.017 27.0092L257.259 28.437C256.814 28.9562 256.252 29.3579 255.572 29.6423C254.904 29.9142 254.138 30.0502 253.272 30.0502Z" fill="white"/>
<path fill-rule="evenodd" clip-rule="evenodd" d="M39.2955 8.15283C31.7751 8.15283 25.6998 14.2493 25.6998 21.7697C25.6998 24.294 26.3825 26.6563 27.6078 28.683V29.0872C27.6078 33.6984 24.2197 35.1915 24.2197 35.1915C24.2197 35.1915 29.0091 35.2424 31.5437 32.9961H31.5454C31.5682 32.9961 31.5972 32.9635 31.6297 32.9635C31.6624 32.9635 31.6912 32.9961 31.714 32.9961H31.7167C33.8833 34.6298 36.4901 35.3432 39.2955 35.3432C46.8159 35.3432 52.9124 29.2684 52.9124 21.7479C52.9124 14.2277 46.8159 8.15283 39.2955 8.15283Z" fill="#6DDDD2"/>
<path fill-rule="evenodd" clip-rule="evenodd" d="M32.8252 23.3815C32.2911 23.3815 32.0341 23.1441 32.0341 22.6101C32.0341 22.1551 32.2911 21.8784 32.8252 21.8784H32.845V21.5025C32.845 21.285 32.845 21.0475 32.8648 20.8104H32.8252C32.2911 20.8104 32.0341 20.5729 32.0341 20.0391C32.0341 19.5841 32.2911 19.3072 32.8252 19.3072H33.0823C33.379 18.101 33.9526 17.0528 34.7831 16.1824C36.1082 14.7785 37.7695 14.0862 39.7669 14.0862C40.934 14.0862 41.9622 14.3235 42.8323 14.8179C43.7223 15.2927 44.1573 15.8661 44.1773 16.5189C44.1773 17.3693 43.6432 18.1406 42.8719 18.1604C42.4962 18.18 42.0611 18.0217 41.5667 17.7252C41.0721 17.4087 40.479 17.2506 39.7867 17.2506C38.6594 17.2506 37.7695 17.646 37.1168 18.4173C36.8993 18.6942 36.7015 18.9909 36.563 19.3072H39.589C40.0831 19.3072 40.38 19.5841 40.38 20.0391C40.38 20.5729 40.0831 20.8104 39.589 20.8104H36.1873C36.1675 21.0475 36.1476 21.285 36.1476 21.5025V21.8784H38.4417C38.9165 21.8784 39.2133 22.1551 39.2133 22.6101C39.2133 23.1441 38.9165 23.3815 38.4417 23.3815H36.4642C36.6224 23.7966 36.8399 24.1725 37.1168 24.5086C37.7695 25.28 38.6594 25.6754 39.7867 25.6754C40.479 25.6754 41.0721 25.5173 41.5667 25.2206C42.0611 24.9042 42.4962 24.7462 42.8719 24.7656C43.6432 24.7856 44.1773 25.5766 44.1773 26.3876C44.1573 27.0598 43.7223 27.6332 42.8323 28.1278C41.9622 28.6025 40.934 28.8398 39.7669 28.8398C37.7695 28.8398 36.1082 28.1477 34.7831 26.7436C33.893 25.794 33.3195 24.6669 33.023 23.3815H32.8252Z" fill="#FAFDFA"/>
</svg>
