<svg width="13" height="14" viewBox="0 0 13 14" fill="none" xmlns="http://www.w3.org/2000/svg">
<g clip-path="url(#clip0_183_30)">
<mask id="mask0_183_30" style="mask-type:luminance" maskUnits="userSpaceOnUse" x="0" y="0" width="13" height="14">
<path d="M3.52083 3.62592V2.27842C3.5209 2.06087 3.6012 1.85226 3.74407 1.69846C3.88694 1.54465 4.08068 1.45825 4.28269 1.45825H10.884C11.086 1.45825 11.2798 1.54469 11.4227 1.69856C11.5656 1.85242 11.6458 2.06111 11.6458 2.27871V9.38808C11.6458 9.60563 11.5655 9.81425 11.4226 9.96805C11.2797 10.1219 11.086 10.2083 10.884 10.2083H9.61919" stroke="white" stroke-linecap="round" stroke-linejoin="round"/>
<path d="M8.71758 3.7915H2.11548C1.91352 3.79166 1.71987 3.87817 1.57712 4.03202C1.43436 4.18587 1.35417 4.39446 1.35417 4.61196V11.721C1.35417 11.9386 1.43443 12.1473 1.57731 12.3012C1.72018 12.4551 1.91396 12.5415 2.11602 12.5415H8.71758C8.91959 12.5414 9.1133 12.455 9.25612 12.3011C9.39894 12.1472 9.47917 11.9386 9.47917 11.721V4.61225C9.4792 4.50449 9.45952 4.39776 9.42125 4.29819C9.38298 4.19861 9.32687 4.10813 9.25612 4.03191C9.18537 3.9557 9.10137 3.89524 9.00892 3.85399C8.91647 3.81274 8.81765 3.7915 8.71758 3.7915Z" fill="#555555" stroke="white" stroke-linejoin="round"/>
</mask>
<g mask="url(#mask0_183_30)">
<path d="M0 0H13V14H0V0Z" fill="black"/>
</g>
</g>
<defs>
<clipPath id="clip0_183_30">
<rect width="13" height="14" fill="white"/>
</clipPath>
</defs>
</svg>
