<svg width="53" height="42" viewBox="0 0 53 42" fill="none" xmlns="http://www.w3.org/2000/svg">
<path d="M52.8378 40.3918C52.8378 41.2762 52.1471 42 51.3013 42H1.53693C0.691178 42 0 41.2762 0 40.3918V1.60819C0 0.723784 0.691178 0 1.53693 0H51.3009C52.1471 0 52.8374 0.723784 52.8374 1.60819V40.3918H52.8378Z" fill="#004990"/>
<path d="M14.1737 29.8559H8.61129L7.80821 32.3304H5.22021L9.50817 19.4387H13.1826L17.5366 32.3308H14.9953L14.1737 29.8559V29.8559ZM13.6077 28.0525L11.3784 21.3371L9.18734 28.0525H13.6077ZM30.6183 19.4387V32.3308H26.4716L22.7883 25.2568C22.6051 24.9041 22.3197 24.287 21.9292 23.4054L21.5134 22.48L21.1072 21.5545H21.013L21.0501 22.4047L21.0791 23.2452L21.0976 24.9359V32.3316H18.6513V19.4387H22.7979L26.1504 25.9745C26.5039 26.6715 26.8473 27.3736 27.1805 28.0806L27.6712 29.1293L28.1623 30.1868H28.2477L28.2187 29.3555L28.1905 28.5247L28.1724 26.8621V19.4387H30.6183V19.4387ZM32.885 32.3308V19.4387H39.222C40.7078 19.4387 41.7202 19.6762 42.2592 20.1516C42.797 20.627 43.0671 21.5227 43.0671 22.8386C43.0671 24.4319 42.4335 25.3699 41.1679 25.6533V25.7008C42.6416 25.9274 43.3779 26.9507 43.3779 28.7702C43.3779 30.0861 43.0949 31.0088 42.5277 31.5377C41.9613 32.0667 40.9731 32.3312 39.5629 32.3312H32.885V32.3308ZM35.3313 24.8502H38.3255C39.2956 24.8502 39.9135 24.7431 40.1812 24.5293C40.4489 24.3152 40.583 23.8209 40.583 23.046C40.583 22.0138 39.9973 21.4973 38.8263 21.4973H35.3313V24.8502ZM35.3313 30.2717H38.0139L38.873 30.2532C39.6982 30.2532 40.2412 30.1369 40.5029 29.9038C40.7633 29.6711 40.8946 29.18 40.8946 28.4305C40.8946 27.6499 40.7573 27.1584 40.4836 26.9571C40.2098 26.7558 39.5351 26.6552 38.4579 26.6552H35.3317V30.2717H35.3313ZM47.6002 19.4387V32.3308H45.1539V19.4387H47.6002Z" fill="white"/>
<path d="M21.614 7.35136C21.7037 7.80624 22.1586 9.96753 22.2798 10.3958C22.221 10.3874 22.1542 10.3785 22.0729 10.3785C21.9916 10.3785 21.9288 10.3874 21.8704 10.3958C21.8394 10.081 21.7174 9.43817 21.6679 9.21476C21.5781 9.21073 21.3209 9.20188 21.0693 9.20188C20.8717 9.20188 20.6732 9.21073 20.4756 9.21476C20.3129 9.45106 19.9128 10.1116 19.7687 10.3958C19.7276 10.3874 19.6874 10.3785 19.6246 10.3785C19.5742 10.3785 19.5211 10.3874 19.4531 10.3958C19.9739 9.65565 20.4854 8.90899 20.9876 8.15605C21.213 7.81952 21.37 7.60054 21.5282 7.35136H21.614V7.35136ZM21.3849 7.88474H21.3704L20.5875 9.04408C20.9353 9.0612 21.2838 9.0612 21.6317 9.04408L21.3849 7.88474ZM23.0547 10.3958C22.9344 10.3721 22.8107 10.3721 22.6904 10.3958C22.9826 9.34156 23.3027 7.76236 23.3973 7.12392C23.4464 7.13237 23.4915 7.14123 23.5679 7.14123C23.6356 7.14123 23.7116 7.13237 23.7757 7.12392C23.708 7.35579 23.1718 9.6479 23.0547 10.3958ZM24.2712 9.5996C24.1991 9.569 23.9471 9.46394 23.9471 9.10969C23.9471 8.69869 24.2889 8.28286 24.9326 8.28286C25.0807 8.28286 25.1435 8.30017 25.2743 8.33519C25.3557 8.35733 25.4096 8.35733 25.5046 8.35733C25.6125 8.35733 25.8327 8.34404 25.9498 8.33962C25.9498 8.36578 25.9406 8.39678 25.9406 8.4318C25.9406 8.46682 25.9498 8.49782 25.9498 8.52398C25.8073 8.51521 25.6646 8.50796 25.5219 8.50225C25.5714 8.56343 25.6483 8.66407 25.6483 8.86092C25.6483 9.10567 25.5179 9.41201 25.2156 9.57383C25.0046 9.68775 24.7522 9.69621 24.6081 9.69621C24.5095 9.69621 24.4149 9.69178 24.3473 9.68775C24.2978 9.71835 24.1629 9.79242 24.1629 9.92808C24.1629 10.1032 24.3513 10.1076 24.495 10.1076C25.0042 10.1116 25.1661 10.1116 25.3327 10.2083C25.4994 10.3045 25.5308 10.4796 25.5308 10.5887C25.5308 10.9256 25.2337 11.5379 24.3698 11.5379C24.1581 11.5379 23.9512 11.5028 23.8026 11.3849C23.7393 11.3355 23.6877 11.2725 23.6518 11.2007C23.6159 11.1288 23.5964 11.0498 23.5949 10.9695C23.5949 10.7638 23.7213 10.5714 23.8924 10.4663C23.9663 10.4212 24.045 10.3844 24.1271 10.3568L24.1311 10.3262C24.0635 10.3089 23.8835 10.2562 23.8835 10.073C23.8835 9.80168 24.1355 9.69218 24.2712 9.63099V9.5996V9.5996ZM24.4193 11.4062C24.9596 11.4062 25.2248 11.0347 25.2248 10.7239C25.2248 10.383 24.8557 10.3697 24.6126 10.3697C24.495 10.3697 24.2752 10.3785 24.1178 10.4792C23.8968 10.6193 23.8658 10.8382 23.8658 10.9473C23.8658 11.275 24.1311 11.4062 24.4193 11.4062ZM24.7072 9.569C25.1435 9.569 25.3057 9.09198 25.3057 8.82509C25.3057 8.57149 25.1528 8.40966 24.9096 8.40966C24.4552 8.40966 24.2933 8.87783 24.2933 9.13143C24.2937 9.46394 24.518 9.569 24.7072 9.569ZM27.6836 10.2429C27.4599 10.3694 27.2072 10.4357 26.9502 10.4353C26.5625 10.4353 26.0541 10.2296 26.0541 9.53398C26.0541 8.84763 26.5223 8.28769 27.2106 8.28769C27.6381 8.28769 28.0169 8.47528 28.0169 9.00463C28.0169 9.16645 27.9851 9.2848 27.9666 9.35927C27.6341 9.34196 27.5077 9.33754 26.9719 9.33754C26.8012 9.33754 26.5665 9.34196 26.4277 9.34599C26.4129 9.42972 26.4053 9.51457 26.4051 9.5996C26.4051 10.1684 26.8056 10.2779 27.058 10.2779C27.4046 10.2779 27.6252 10.1201 27.7287 10.046H27.742L27.6836 10.2429ZM26.459 9.17128C26.6438 9.18417 26.887 9.18859 27.0717 9.18859C27.2468 9.18859 27.5037 9.18859 27.6703 9.17128C27.6836 9.11895 27.6969 9.04851 27.6969 8.93499C27.6969 8.54572 27.4449 8.41449 27.2106 8.41449C26.9679 8.41409 26.5943 8.56746 26.459 9.17128ZM28.9669 8.65079H28.9758C29.0788 8.54572 29.3091 8.30057 29.7145 8.30057C30.1464 8.30057 30.2265 8.57148 30.268 8.72486C30.4073 8.55418 30.6415 8.30057 31.055 8.30057C31.447 8.30057 31.6403 8.54532 31.6403 8.7639C31.6403 8.85609 31.6093 9.00463 31.573 9.17088L31.4016 9.96712C31.3476 10.2163 31.3388 10.3258 31.3295 10.3954C31.2717 10.3846 31.2131 10.3788 31.1544 10.3781C31.0864 10.3781 31.0187 10.387 30.9604 10.3954C31.0368 10.1813 31.3118 9.12258 31.3118 8.89071C31.3118 8.64555 31.1407 8.50547 30.902 8.50547C30.6721 8.50547 30.3662 8.64555 30.2583 9.00382C30.1863 9.24012 30.0236 10.0585 29.9705 10.395C29.914 10.3849 29.8568 10.3791 29.7994 10.3777C29.7318 10.3777 29.6641 10.3866 29.6058 10.395C29.7052 10.0931 29.9479 9.12217 29.9479 8.85528C29.9479 8.59725 29.7278 8.50547 29.5478 8.50547C29.448 8.50547 29.0615 8.53606 28.9037 9.01268C28.8317 9.23126 28.6562 10.1281 28.624 10.395C28.5646 10.3842 28.5044 10.3784 28.444 10.3777C28.3812 10.3777 28.3132 10.3866 28.2641 10.395C28.413 9.89185 28.6517 8.80698 28.7145 8.3219C28.7504 8.33036 28.818 8.33881 28.8719 8.33881C28.9347 8.33881 28.9983 8.33036 29.0563 8.3219L28.9669 8.65079V8.65079ZM33.6856 10.2429C33.462 10.3693 33.2095 10.4356 32.9526 10.4353C32.5645 10.4353 32.0565 10.2296 32.0565 9.53398C32.0565 8.84763 32.5243 8.28769 33.2126 8.28769C33.6401 8.28769 34.0189 8.47528 34.0189 9.00463C34.0189 9.16645 33.9871 9.2848 33.9686 9.35927C33.6361 9.34196 33.5097 9.33754 32.9739 9.33754C32.8032 9.33754 32.5693 9.34196 32.4297 9.34599C32.4204 9.40275 32.4067 9.48608 32.4067 9.5996C32.4067 10.1684 32.8077 10.2779 33.0597 10.2779C33.4062 10.2779 33.6264 10.1201 33.7303 10.046H33.7436L33.6856 10.2429V10.2429ZM32.4615 9.17128C32.6458 9.18417 32.889 9.18859 33.0737 9.18859C33.2489 9.18859 33.5057 9.18859 33.6719 9.17128C33.6852 9.11895 33.6985 9.04851 33.6985 8.93499C33.6985 8.54572 33.4465 8.41449 33.2122 8.41449C32.9699 8.41409 32.5967 8.56746 32.4615 9.17128V9.17128ZM35.9367 10.2429C35.713 10.3695 35.4602 10.4358 35.2032 10.4353C34.8156 10.4353 34.3072 10.2296 34.3072 9.53398C34.3072 8.84763 34.7753 8.28769 35.4637 8.28769C35.8912 8.28769 36.27 8.47528 36.27 9.00463C36.27 9.16645 36.2378 9.2848 36.2201 9.35927C35.8876 9.34196 35.7608 9.33754 35.2254 9.33754C35.0539 9.33754 34.8204 9.34196 34.6807 9.34599C34.6715 9.40275 34.6578 9.48608 34.6578 9.5996C34.6578 10.1684 35.0587 10.2779 35.3107 10.2779C35.6569 10.2779 35.8775 10.1201 35.9814 10.046H35.9946L35.9367 10.2429ZM34.7125 9.17128C34.9164 9.1835 35.1206 9.18927 35.3248 9.18859C35.4999 9.18859 35.7567 9.18859 35.9234 9.17128C35.9367 9.11895 35.95 9.04851 35.95 8.93499C35.95 8.54572 35.698 8.41449 35.4637 8.41449C35.2209 8.41409 34.8474 8.56746 34.7125 9.17128ZM37.2389 8.64636L37.257 8.65481C37.3826 8.50184 37.6576 8.30057 37.9997 8.30057C38.3186 8.30057 38.6297 8.47528 38.6297 8.82549C38.6297 8.93942 38.6201 8.98329 38.5263 9.37658C38.4764 9.58229 38.3411 10.2123 38.3234 10.3958C38.2668 10.3852 38.2095 10.3794 38.1519 10.3785C38.0851 10.3785 38.0082 10.3874 37.9543 10.3958C38.0223 10.199 38.2916 9.19705 38.2916 8.89554C38.2916 8.63307 38.0714 8.50627 37.8464 8.50627C37.6978 8.50627 37.3295 8.57591 37.1938 8.97444C37.0904 9.27635 36.9056 10.2562 36.8831 10.3962C36.8282 10.3853 36.7724 10.3795 36.7164 10.3789C36.654 10.3789 36.5864 10.3878 36.5365 10.3962C36.6584 9.99369 36.9326 8.67695 36.9914 8.32311C37.0364 8.33157 37.0908 8.34002 37.1536 8.34002C37.2075 8.34002 37.2707 8.33157 37.3247 8.32311L37.2389 8.64636V8.64636ZM41.1557 7.36021C41.4166 7.81509 42.6548 9.56498 42.8754 9.81415C42.9511 9.53881 43.253 8.12989 43.3384 7.39926C43.379 7.40771 43.4418 7.41657 43.4962 7.41657C43.5541 7.41657 43.5863 7.40771 43.6314 7.39926C43.4648 7.95921 43.001 10.0372 42.9515 10.4437H42.8887C42.749 10.2034 41.3542 8.23455 41.1694 8.00711C41.039 8.52318 40.7282 9.99289 40.6968 10.3954C40.6465 10.3847 40.5953 10.3789 40.5439 10.3781C40.4943 10.3781 40.4311 10.387 40.3865 10.3954C40.5934 9.79604 41.0342 7.74867 41.1014 7.35941H41.1557V7.36021ZM45.3342 10.0984L45.3161 10.081C45.172 10.2477 44.92 10.4441 44.5504 10.4441C44.2537 10.4441 43.9204 10.2646 43.9204 9.94096C43.9204 9.83146 43.9792 9.60402 44.0601 9.24978C44.0964 9.09681 44.1954 8.6375 44.2364 8.32271C44.2904 8.33116 44.358 8.33962 44.4337 8.33962C44.507 8.33962 44.5693 8.33116 44.6281 8.32271C44.5065 8.75988 44.2763 9.57343 44.2763 9.81415C44.2763 10.0855 44.4385 10.234 44.7135 10.234C45.0597 10.234 45.2935 9.99329 45.3841 9.7268C45.496 9.39872 45.6671 8.40161 45.6808 8.32271C45.744 8.33116 45.8028 8.33962 45.8603 8.33962C45.9284 8.33962 45.9908 8.33116 46.0455 8.32271C45.9549 8.61134 45.6494 9.86649 45.5906 10.3958C45.5363 10.3874 45.4868 10.3785 45.4284 10.3785C45.3616 10.3785 45.3028 10.3874 45.2533 10.3958L45.3342 10.0984V10.0984ZM47.2342 7.77564C47.1759 7.97692 47.1308 8.17819 47.0857 8.37947C47.2258 8.37947 47.3965 8.36619 47.5539 8.36216C47.5363 8.42027 47.5274 8.48061 47.5273 8.54129C47.3699 8.53687 47.1847 8.52398 47.0495 8.52398L46.8739 9.34639C46.8337 9.53438 46.7709 9.81899 46.7709 9.95867C46.7709 10.1905 46.9589 10.2779 47.0897 10.2779C47.1936 10.2779 47.2974 10.2429 47.3872 10.1905L47.3787 10.3041C47.2564 10.3962 47.0684 10.4397 46.919 10.4397C46.6856 10.4397 46.4376 10.2996 46.4376 10.0287C46.4376 9.91479 46.4694 9.78396 46.5004 9.63905C46.6304 9.03965 46.6533 8.97444 46.7435 8.52358C46.6578 8.52358 46.5459 8.52801 46.4468 8.53204C46.4646 8.48373 46.4734 8.44871 46.4734 8.36176C46.5684 8.36578 46.6856 8.37907 46.7616 8.37907L46.8429 7.91533L47.2342 7.77564ZM11.5502 13.6943C12.0719 13.7422 12.2253 14.0574 12.2253 14.2849C12.2253 14.6041 12.0144 14.9499 11.6448 15.1294C11.3477 15.2739 11.0011 15.2868 10.8345 15.2868C10.7447 15.2868 10.3486 15.2695 10.2673 15.2695C10.182 15.2695 10.1236 15.2784 10.0648 15.2868C10.2943 14.4427 10.5914 13.0603 10.7169 12.2906C10.7806 12.2951 10.8792 12.3079 10.9557 12.3079C11.1267 12.3079 11.3337 12.2906 11.5406 12.2906C11.7885 12.2906 11.9596 12.3212 12.0941 12.3913C12.3018 12.5004 12.3738 12.6972 12.3738 12.8421C12.3738 13.2793 11.9234 13.5989 11.5591 13.6641L11.5502 13.6943ZM11.3119 13.7777C11.209 13.7649 11.1053 13.759 11.0016 13.7599C10.9202 13.7599 10.8256 13.7599 10.7496 13.7644C10.6503 14.2116 10.5602 14.6608 10.4794 15.1117C10.5922 15.1334 10.7 15.1334 10.7681 15.1334C10.9166 15.1334 11.1501 15.1202 11.3441 15.0417C11.6227 14.9277 11.8525 14.6085 11.8525 14.2893C11.8517 13.9785 11.609 13.8167 11.3119 13.7777V13.7777ZM11.4693 12.4348C11.3345 12.4348 11.1944 12.4388 11.0599 12.4521C10.9066 13.0643 10.853 13.2918 10.785 13.6114C10.8526 13.6199 10.9198 13.6243 11.0197 13.6243C11.1771 13.6243 11.4468 13.6114 11.6493 13.4931C11.8972 13.3489 12.0091 13.0994 12.0091 12.8848C12.0091 12.5616 11.7757 12.4348 11.4693 12.4348V12.4348ZM14.3331 15.1334C14.1092 15.2603 13.8561 15.3268 13.5988 15.3263C13.212 15.3263 12.7039 15.1206 12.7039 14.425C12.7039 13.7382 13.1721 13.1783 13.8605 13.1783C14.288 13.1783 14.6668 13.3663 14.6668 13.8956C14.6668 14.0574 14.6346 14.1754 14.6164 14.2498C14.2839 14.2325 14.1575 14.2281 13.6217 14.2281C13.4511 14.2281 13.2168 14.2325 13.0775 14.2366C13.0627 14.3203 13.0552 14.4051 13.055 14.4902C13.055 15.059 13.4551 15.1685 13.7071 15.1685C14.0537 15.1685 14.2747 15.0111 14.3781 14.9366H14.3922L14.3331 15.1334V15.1334ZM13.1081 14.0619C13.2929 14.0747 13.536 14.0792 13.7204 14.0792C13.8963 14.0792 14.1531 14.0792 14.3198 14.0619C14.3331 14.0091 14.3463 13.9391 14.3463 13.8256C14.3463 13.4363 14.0943 13.3051 13.8601 13.3051C13.6177 13.3051 13.2442 13.4584 13.1081 14.0619ZM16.2061 13.1738C16.9178 13.1738 17.1646 13.5848 17.1646 14.0268C17.1646 14.6697 16.665 15.3303 15.8909 15.3303C15.1482 15.3303 14.9502 14.8271 14.9502 14.4507C14.9502 13.8256 15.4276 13.1738 16.2061 13.1738V13.1738ZM15.8776 15.1906C16.5571 15.1906 16.8095 14.3815 16.8095 13.9483C16.8095 13.5852 16.5978 13.3139 16.2101 13.3139C15.558 13.3139 15.306 14.0707 15.306 14.5562C15.306 14.9237 15.4727 15.1906 15.8776 15.1906ZM17.927 14.4906C17.855 14.46 17.6026 14.3549 17.6026 14.0007C17.6026 13.5897 17.9447 13.1742 18.5884 13.1742C18.7365 13.1742 18.8001 13.1915 18.931 13.2266C19.0115 13.2483 19.0654 13.2483 19.16 13.2483C19.2683 13.2483 19.4881 13.235 19.6056 13.2306C19.6056 13.2568 19.5964 13.2874 19.5964 13.3228C19.5964 13.3574 19.6056 13.3884 19.6056 13.4146C19.4631 13.4055 19.3205 13.3981 19.1777 13.3924C19.2272 13.4536 19.3041 13.5542 19.3041 13.7511C19.3041 13.9958 19.1737 14.3026 18.8722 14.464C18.6605 14.5779 18.4085 14.5864 18.2644 14.5864C18.1653 14.5864 18.0707 14.5824 18.0031 14.5779C17.9536 14.6085 17.8191 14.683 17.8191 14.8186C17.8191 14.9938 18.0075 14.9982 18.1516 14.9982C18.6609 15.0026 18.8231 15.0026 18.9889 15.0988C19.1556 15.195 19.1874 15.3701 19.1874 15.4792C19.1874 15.8162 18.8899 16.4284 18.026 16.4284C17.8147 16.4284 17.607 16.3938 17.4588 16.2751C17.3955 16.2257 17.3439 16.1627 17.308 16.0909C17.272 16.019 17.2526 15.94 17.2511 15.8596C17.2511 15.6543 17.3775 15.4619 17.5486 15.3565C17.648 15.2953 17.7338 15.2647 17.7833 15.247L17.7877 15.2164C17.7201 15.1991 17.5402 15.1463 17.5402 14.9628C17.5402 14.6914 17.7922 14.5824 17.9274 14.5212V14.4906H17.927ZM18.0752 16.2972C18.6154 16.2972 18.8807 15.9253 18.8807 15.6149C18.8807 15.2739 18.5119 15.2606 18.2688 15.2606C18.1512 15.2606 17.931 15.2695 17.774 15.3701C17.6953 15.42 17.6308 15.4892 17.5866 15.5712C17.5423 15.6532 17.52 15.7452 17.5216 15.8383C17.5212 16.166 17.7873 16.2972 18.0752 16.2972V16.2972ZM18.363 14.4596C18.8001 14.4596 18.9616 13.983 18.9616 13.7161C18.9616 13.4625 18.8082 13.3002 18.5655 13.3002C18.111 13.3002 17.9492 13.7684 17.9492 14.0224C17.9496 14.3549 18.1738 14.4596 18.363 14.4596V14.4596ZM21.3394 15.1334C21.1157 15.2603 20.8628 15.3267 20.6056 15.3263C20.2183 15.3263 19.7099 15.1206 19.7099 14.425C19.7099 13.7382 20.1781 13.1783 20.8664 13.1783C21.2943 13.1783 21.6727 13.3663 21.6727 13.8956C21.6727 14.0574 21.6409 14.1754 21.6232 14.2498C21.2899 14.2325 21.1635 14.2281 20.6285 14.2281C20.457 14.2281 20.2236 14.2325 20.0835 14.2366C20.0687 14.3203 20.0612 14.4051 20.0609 14.4902C20.0609 15.059 20.4619 15.1685 20.7139 15.1685C21.0605 15.1685 21.2807 15.0111 21.3849 14.9366H21.3982L21.3394 15.1334V15.1334ZM20.1153 14.0619C20.3191 14.0741 20.5233 14.0798 20.7276 14.0792C20.9027 14.0792 21.1595 14.0792 21.3261 14.0619C21.3398 14.0091 21.3531 13.9391 21.3531 13.8256C21.3531 13.4363 21.1011 13.3051 20.8668 13.3051C20.6233 13.3051 20.2501 13.4584 20.1153 14.0619V14.0619ZM22.6413 13.5365L22.6586 13.5454C22.785 13.3924 23.0595 13.1911 23.4013 13.1911C23.7209 13.1911 24.0313 13.3663 24.0313 13.7161C24.0313 13.83 24.022 13.8739 23.9282 14.2672C23.8779 14.4729 23.7434 15.1033 23.7257 15.2864C23.6692 15.2758 23.6118 15.27 23.5543 15.2691C23.4874 15.2691 23.4105 15.278 23.3566 15.2864C23.4234 15.09 23.6939 14.088 23.6939 13.7861C23.6939 13.5236 23.4729 13.3964 23.2487 13.3964C23.0998 13.3964 22.7306 13.4665 22.5958 13.8646C22.4923 14.1665 22.308 15.1463 22.2854 15.286C22.2305 15.2751 22.1747 15.2693 22.1188 15.2687C22.0584 15.2696 21.9982 15.2754 21.9388 15.286C22.0604 14.8839 22.3345 13.5667 22.3933 13.2129C22.4384 13.2217 22.4923 13.2302 22.5555 13.2302C22.6091 13.2302 22.6719 13.2217 22.7262 13.2129L22.6413 13.5365V13.5365ZM26.1165 14.8971C25.9683 15.0811 25.7562 15.3436 25.3158 15.3436C24.7708 15.3436 24.5055 14.941 24.5055 14.4902C24.5055 13.9391 24.8883 13.1823 25.6801 13.1823C26.1616 13.1823 26.2964 13.4753 26.36 13.6154H26.3777C26.4856 13.0643 26.6124 12.4911 26.6881 12.0145C26.7376 12.0229 26.8012 12.0318 26.868 12.0318C26.9357 12.0318 26.9944 12.0229 27.044 12.0145C26.7827 13.0511 26.6881 13.5325 26.4949 14.4551C26.4368 14.7308 26.3856 15.0078 26.3415 15.286C26.3012 15.2776 26.2654 15.2687 26.1881 15.2687C26.1121 15.2687 26.0666 15.2776 26.0175 15.286L26.1165 14.8971V14.8971ZM25.41 15.1729C26.0895 15.1729 26.2831 14.3155 26.2831 13.9347C26.2831 13.7595 26.2244 13.3397 25.7341 13.3397C25.0324 13.3397 24.8658 14.1794 24.8658 14.5163C24.8658 14.941 25.0638 15.1729 25.41 15.1729ZM28.6783 15.1334C28.4548 15.2604 28.202 15.3269 27.9449 15.3263C27.558 15.3263 27.0492 15.1206 27.0492 14.425C27.0492 13.7382 27.5178 13.1783 28.2065 13.1783C28.634 13.1783 29.0116 13.3663 29.0116 13.8956C29.0116 14.0574 28.9806 14.1754 28.9625 14.2498C28.6292 14.2325 28.5036 14.2281 27.9678 14.2281C27.7971 14.2281 27.5628 14.2325 27.4236 14.2366C27.4088 14.3203 27.4012 14.4051 27.401 14.4902C27.401 15.059 27.8012 15.1685 28.0535 15.1685C28.4001 15.1685 28.6203 15.0111 28.7242 14.9366H28.7379L28.6783 15.1334V15.1334ZM27.4542 14.0619C27.6389 14.0747 27.8817 14.0792 28.0664 14.0792C28.2423 14.0792 28.4984 14.0792 28.665 14.0619C28.6787 14.0091 28.692 13.9391 28.692 13.8256C28.692 13.4363 28.44 13.3051 28.2065 13.3051C27.963 13.3051 27.5898 13.4584 27.4542 14.0619V14.0619ZM31.2546 12.2902C31.3187 12.3006 31.3834 12.3064 31.4482 12.3075C31.5207 12.3075 31.5964 12.2991 31.6552 12.2902C31.3944 13.2793 31.1752 14.2789 30.9982 15.2864C30.9326 15.2754 30.8662 15.2697 30.7997 15.2691C30.7325 15.2691 30.656 15.278 30.5973 15.2864C30.8271 14.4423 31.1242 13.0599 31.2546 12.2902V12.2902ZM32.484 13.5365L32.5017 13.5454C32.6277 13.3924 32.9027 13.1911 33.2444 13.1911C33.5645 13.1911 33.8748 13.3663 33.8748 13.7161C33.8748 13.83 33.8656 13.8739 33.771 14.2672C33.7214 14.4729 33.5866 15.1033 33.5681 15.2864C33.5118 15.2758 33.4547 15.27 33.3974 15.2691C33.3294 15.2691 33.2533 15.278 33.1989 15.2864C33.2666 15.09 33.5371 14.088 33.5371 13.7861C33.5371 13.5236 33.3161 13.3964 33.0911 13.3964C32.9429 13.3964 32.5738 13.4665 32.4389 13.8646C32.3351 14.1665 32.1507 15.1463 32.1286 15.286C32.0835 15.2776 32.0247 15.2687 31.9619 15.2687C31.8991 15.2687 31.8315 15.2776 31.782 15.286C31.9035 14.8839 32.1777 13.5667 32.2364 13.2129C32.2815 13.2217 32.3355 13.2302 32.3987 13.2302C32.4526 13.2302 32.5154 13.2217 32.5697 13.2129L32.484 13.5365V13.5365ZM35.5901 13.5631C35.5458 13.4013 35.3924 13.3051 35.2217 13.3051C34.9605 13.3051 34.7938 13.5192 34.7938 13.7205C34.7938 13.9347 34.9782 14.0184 35.1807 14.1057C35.3703 14.1891 35.5865 14.2849 35.5865 14.5695C35.5865 14.972 35.1807 15.3347 34.6586 15.3347C34.4742 15.3347 34.3305 15.2997 34.1727 15.2083C34.2298 15.1154 34.2779 15.0173 34.3164 14.9153H34.3486C34.4154 15.0904 34.5954 15.1773 34.7934 15.1773C35.1356 15.1773 35.2841 14.9193 35.2841 14.7265C35.2841 14.5344 35.163 14.4773 34.9243 14.3678C34.731 14.2804 34.5141 14.1798 34.5141 13.8646C34.5141 13.5671 34.7351 13.1601 35.3377 13.1601C35.4999 13.1601 35.6038 13.1863 35.7483 13.2479C35.6573 13.4447 35.644 13.5059 35.6311 13.5627H35.5901V13.5631ZM36.9732 12.6662C36.9145 12.8675 36.8694 13.0688 36.8243 13.27C36.964 13.27 37.1347 13.2568 37.2921 13.2527C37.2746 13.311 37.2656 13.3715 37.2655 13.4323C37.1081 13.4274 36.9237 13.415 36.7885 13.415L36.613 14.237C36.5719 14.4254 36.5091 14.7096 36.5091 14.8496C36.5091 15.0815 36.6983 15.1689 36.8287 15.1689C36.9322 15.1689 37.036 15.1338 37.1254 15.0815L37.117 15.195C36.9958 15.2868 36.8066 15.3307 36.6576 15.3307C36.4238 15.3307 36.1762 15.1906 36.1762 14.9193C36.1762 14.8058 36.2076 14.6745 36.2386 14.53C36.3694 13.9306 36.392 13.865 36.4821 13.4146C36.3968 13.4146 36.2841 13.419 36.185 13.423C36.2024 13.3751 36.212 13.3397 36.212 13.2523C36.3062 13.2568 36.4234 13.2696 36.4998 13.2696L36.5808 12.8059L36.9732 12.6662V12.6662ZM39.0214 15.1334C38.7978 15.2603 38.545 15.3267 38.288 15.3263C37.9007 15.3263 37.3919 15.1206 37.3919 14.425C37.3919 13.7382 37.8601 13.1783 38.5492 13.1783C38.9767 13.1783 39.3543 13.3663 39.3543 13.8956C39.3543 14.0574 39.3229 14.1754 39.3052 14.2498C38.9719 14.2325 38.8459 14.2281 38.3105 14.2281C38.1382 14.2281 37.9051 14.2325 37.7651 14.2366C37.757 14.2937 37.7429 14.3766 37.7429 14.4902C37.7429 15.059 38.1435 15.1685 38.3959 15.1685C38.742 15.1685 38.9622 15.0111 39.0665 14.9366H39.0798L39.0214 15.1334V15.1334ZM37.7973 14.0619C38.001 14.0741 38.205 14.0798 38.4091 14.0792C38.5855 14.0792 38.8415 14.0792 39.0077 14.0619C39.0214 14.0091 39.0347 13.9391 39.0347 13.8256C39.0347 13.4363 38.7823 13.3051 38.5492 13.3051C38.3053 13.3051 37.9317 13.4584 37.7973 14.0619V14.0619ZM39.9807 15.2864C39.8602 15.263 39.7364 15.263 39.616 15.2864C39.9094 14.2321 40.2283 12.6533 40.3229 12.0145C40.372 12.0229 40.4171 12.0318 40.4939 12.0318C40.5616 12.0318 40.6376 12.0229 40.7017 12.0145C40.6332 12.2464 40.0974 14.5389 39.9807 15.2864ZM41.0664 15.2864C40.9459 15.263 40.8221 15.263 40.7017 15.2864C40.9947 14.2321 41.3135 12.6533 41.4081 12.0145C41.4576 12.0229 41.5027 12.0318 41.5788 12.0318C41.6468 12.0318 41.7237 12.0229 41.7869 12.0145C41.7189 12.2464 41.1831 14.5389 41.0664 15.2864V15.2864ZM42.1645 15.2864C42.096 15.2765 42.0269 15.2707 41.9576 15.2691C41.8856 15.2691 41.8272 15.278 41.7817 15.2864C41.9789 14.6657 42.2229 13.3791 42.2454 13.2133C42.3123 13.2221 42.371 13.2306 42.4346 13.2306C42.5019 13.2306 42.5651 13.2221 42.619 13.2133C42.5337 13.5019 42.2233 14.7663 42.1645 15.2864ZM42.5876 12.312C42.71 12.312 42.8034 12.4082 42.8034 12.5221C42.803 12.5501 42.7972 12.5777 42.7862 12.6034C42.7752 12.6291 42.7592 12.6524 42.7391 12.6718C42.719 12.6913 42.6953 12.7067 42.6693 12.717C42.6433 12.7273 42.6156 12.7323 42.5876 12.7318C42.5312 12.7325 42.4769 12.7108 42.4364 12.6715C42.396 12.6322 42.3728 12.5785 42.3718 12.5221C42.3718 12.4082 42.466 12.312 42.5876 12.312ZM43.5791 13.5365L43.5964 13.5454C43.7224 13.3924 43.9969 13.1911 44.3391 13.1911C44.6587 13.1911 44.9691 13.3663 44.9691 13.7161C44.9691 13.83 44.9602 13.8739 44.8656 14.2672C44.8157 14.4729 44.6813 15.1033 44.6631 15.2864C44.6067 15.2758 44.5495 15.27 44.4921 15.2691C44.424 15.2691 44.3479 15.278 44.2936 15.2864C44.3616 15.09 44.6317 14.088 44.6317 13.7861C44.6317 13.5236 44.4107 13.3964 44.1857 13.3964C44.0376 13.3964 43.6684 13.4665 43.534 13.8646C43.4297 14.1665 43.2458 15.1463 43.2232 15.286C43.1781 15.2776 43.1194 15.2687 43.0566 15.2687C42.9938 15.2687 42.9261 15.2776 42.8766 15.286C42.9986 14.8839 43.2727 13.5667 43.3315 13.2129C43.3766 13.2217 43.4301 13.2302 43.4937 13.2302C43.5473 13.2302 43.6101 13.2217 43.6644 13.2129L43.5791 13.5365V13.5365ZM45.87 14.4906C45.7979 14.46 45.5459 14.3549 45.5459 14.0007C45.5459 13.5897 45.8885 13.1742 46.5322 13.1742C46.6803 13.1742 46.7431 13.1915 46.8739 13.2266C46.9549 13.2483 47.0088 13.2483 47.103 13.2483C47.2113 13.2483 47.4323 13.235 47.5482 13.2306C47.5482 13.2568 47.5398 13.2874 47.5398 13.3228C47.5398 13.3574 47.5482 13.3884 47.5482 13.4146C47.4059 13.4055 47.2636 13.3981 47.1211 13.3924C47.1706 13.4536 47.2467 13.5542 47.2467 13.7511C47.2467 13.9958 47.1163 14.3026 46.8148 14.464C46.6038 14.5779 46.3518 14.5864 46.2073 14.5864C46.1079 14.5864 46.0133 14.5824 45.9465 14.5779C45.8966 14.6085 45.7617 14.683 45.7617 14.8186C45.7617 14.9938 45.9509 14.9982 46.095 14.9982C46.6038 15.0026 46.7653 15.0026 46.9319 15.0988C47.0986 15.195 47.13 15.3701 47.13 15.4792C47.13 15.8162 46.8333 16.4284 45.969 16.4284C45.7569 16.4284 45.5504 16.3938 45.401 16.2751C45.3378 16.2256 45.2864 16.1626 45.2507 16.0908C45.215 16.0189 45.1958 15.9399 45.1945 15.8596C45.1945 15.6543 45.3201 15.4619 45.4912 15.3565C45.5902 15.2953 45.6756 15.2647 45.7251 15.247L45.7299 15.2164C45.6623 15.1991 45.4823 15.1463 45.4823 14.9628C45.4823 14.6914 45.7343 14.5824 45.8692 14.5212V14.4906H45.87ZM46.0189 16.2972C46.5587 16.2972 46.8244 15.9253 46.8244 15.6149C46.8244 15.2739 46.4553 15.2606 46.2122 15.2606C46.0954 15.2606 45.8744 15.2695 45.717 15.3701C45.6384 15.42 45.5738 15.4893 45.5296 15.5712C45.4854 15.6532 45.463 15.7452 45.4646 15.8383C45.4646 16.166 45.7311 16.2972 46.0189 16.2972V16.2972ZM46.3072 14.4596C46.7435 14.4596 46.9057 13.983 46.9057 13.7161C46.9057 13.4625 46.7524 13.3002 46.5096 13.3002C46.0548 13.3002 45.8925 13.7684 45.8925 14.0224C45.8925 14.3549 46.1176 14.4596 46.3072 14.4596V14.4596Z" fill="white"/>
<path d="M4.90272 38.0301C4.68555 38.0294 4.47745 37.9429 4.32389 37.7893C4.17032 37.6357 4.08377 37.4276 4.08313 37.2105V37.0583C4.08313 36.6074 4.45227 36.2387 4.90272 36.2387H48.0846C48.5359 36.2387 48.9046 36.6074 48.9046 37.0583V37.2105C48.9046 37.6613 48.5359 38.0301 48.0846 38.0301H4.90272Z" fill="#FFEF00"/>
</svg>
