<svg width="400" height="50" viewBox="0 0 400 50" fill="none" xmlns="http://www.w3.org/2000/svg">
<path d="M0 10.596C0 4.744 4.744 0 10.596 0H389.404C395.256 0 400 4.744 400 10.596V38.4106C400 44.2626 395.256 49.0066 389.404 49.0066H10.596C4.74401 49.0066 0 44.2626 0 38.4106V10.596Z" fill="#FFDD55"/>
<path d="M48.3771 14.5978C47.814 13.6416 47.0525 12.9564 46.0892 12.5422C45.1251 12.128 43.8169 11.9204 42.1613 11.9204H37.9534L37.9518 11.9326H32.7543L27.8146 36.2486H32.7543L34.6948 26.6958H42.3202C42.7623 26.6958 44.1685 26.2747 44.8057 25.969C45.5541 25.6103 46.2539 25.0823 46.9034 24.3867C47.553 23.6911 48.1022 22.7619 48.5492 21.6016C48.9963 20.4414 49.2202 19.2473 49.2202 18.0202C49.2202 16.6942 48.9386 15.5539 48.3771 14.5978Z" fill="#38447E"/>
<path d="M46.6943 15.4065H36.9885L34.6948 26.6961H42.3202C42.7623 26.6961 44.1685 26.2749 44.8057 25.9692C45.5541 25.6105 46.2539 25.0825 46.9034 24.3869C47.553 23.6913 48.1022 22.7621 48.5492 21.6019C48.9962 20.4416 49.2202 19.2476 49.2202 18.0205C49.2202 17.1242 49.0802 16.3201 48.8242 15.5932C48.1993 15.4803 47.4847 15.4204 46.6943 15.4065Z" fill="#212C63"/>
<path d="M52.6105 18.0717C52.0474 17.1156 51.2858 16.4304 50.3226 16.0162C49.8961 15.8338 49.3923 15.6974 48.8308 15.595L48.9419 15.9667L48.937 15.9684C49.1181 16.5954 49.2202 17.2745 49.2202 18.0205C49.2202 19.2467 48.9963 20.4408 48.5492 21.601C48.1022 22.7612 47.553 23.6896 46.9034 24.3861C46.2539 25.0825 45.5541 25.6097 44.8057 25.9683C44.1693 26.274 42.7631 26.6952 42.3202 26.6952H34.6948L32.0488 39.7216H36.9885L38.929 30.1689H46.5552C46.9973 30.1689 48.4027 29.7486 49.0399 29.4421C49.7891 29.0834 50.4889 28.5554 51.1385 27.8598C51.788 27.1642 52.3364 26.235 52.7834 25.0747C53.2304 23.9145 53.4552 22.7204 53.4552 21.4942C53.4552 20.1681 53.1736 19.0279 52.6105 18.0717Z" fill="#5FCCFF"/>
<path d="M79.9814 30.4638V17.4836H91.4596V30.4638H89.0861V18.93L89.6424 19.5234H81.7987L82.355 18.93V30.4638H79.9814Z" fill="black"/>
<path d="M99.2733 30.5936C98.2596 30.5936 97.3572 30.3772 96.566 29.9446C95.7749 29.4995 95.1506 28.8938 94.6932 28.1274C94.2358 27.3609 94.0071 26.4894 94.0071 25.5128C94.0071 24.5238 94.2358 23.6523 94.6932 22.8982C95.1506 22.1318 95.7749 21.5322 96.566 21.0995C97.3572 20.6669 98.2596 20.4505 99.2733 20.4505C100.299 20.4505 101.208 20.6669 101.999 21.0995C102.803 21.5322 103.427 22.1256 103.872 22.8797C104.329 23.6338 104.558 24.5115 104.558 25.5128C104.558 26.4894 104.329 27.3609 103.872 28.1274C103.427 28.8938 102.803 29.4995 101.999 29.9446C101.208 30.3772 100.299 30.5936 99.2733 30.5936ZM99.2733 28.6095C99.842 28.6095 100.349 28.4858 100.794 28.2386C101.239 27.9914 101.585 27.6329 101.832 27.1631C102.092 26.6934 102.222 26.1432 102.222 25.5128C102.222 24.87 102.092 24.3198 101.832 23.8625C101.585 23.3927 101.239 23.0342 100.794 22.787C100.349 22.5397 99.8481 22.4161 99.2919 22.4161C98.7232 22.4161 98.2164 22.5397 97.7713 22.787C97.3387 23.0342 96.9925 23.3927 96.7329 23.8625C96.4733 24.3198 96.3435 24.87 96.3435 25.5128C96.3435 26.1432 96.4733 26.6934 96.7329 27.1631C96.9925 27.6329 97.3387 27.9914 97.7713 28.2386C98.2164 28.4858 98.717 28.6095 99.2733 28.6095Z" fill="black"/>
<path d="M118.334 30.4638L115.441 25.7168L117.333 24.5485L121.097 30.4638H118.334ZM113.568 26.4956V24.5671H116.887V26.4956H113.568ZM117.555 25.7909L115.367 25.5313L118.371 20.5618H120.837L117.555 25.7909ZM107.876 30.4638H105.131L108.877 24.5485L110.768 25.7168L107.876 30.4638ZM114.254 30.4638H111.955V20.5618H114.254V30.4638ZM112.641 26.4956H109.34V24.5671H112.641V26.4956ZM108.654 25.7909L105.372 20.5618H107.838L110.824 25.5313L108.654 25.7909Z" fill="black"/>
<path d="M127.111 30.5936C126.011 30.5936 125.046 30.3772 124.218 29.9446C123.402 29.4995 122.766 28.8938 122.308 28.1274C121.863 27.3609 121.641 26.4894 121.641 25.5128C121.641 24.5238 121.857 23.6523 122.29 22.8982C122.735 22.1318 123.34 21.5322 124.107 21.0995C124.886 20.6669 125.769 20.4505 126.758 20.4505C127.723 20.4505 128.582 20.6607 129.336 21.081C130.09 21.5013 130.683 22.0947 131.116 22.8611C131.549 23.6276 131.765 24.53 131.765 25.5684C131.765 25.6673 131.759 25.7786 131.747 25.9022C131.747 26.0258 131.74 26.1432 131.728 26.2545H123.476V24.7154H130.504L129.596 25.1976C129.608 24.6289 129.49 24.1282 129.243 23.6956C128.996 23.2629 128.656 22.9229 128.223 22.6757C127.803 22.4285 127.315 22.3048 126.758 22.3048C126.19 22.3048 125.689 22.4285 125.256 22.6757C124.836 22.9229 124.502 23.2691 124.255 23.7141C124.02 24.1468 123.903 24.6598 123.903 25.2532V25.624C123.903 26.2174 124.039 26.7428 124.311 27.2002C124.583 27.6576 124.966 28.0099 125.46 28.2572C125.955 28.5044 126.524 28.628 127.166 28.628C127.723 28.628 128.223 28.5415 128.668 28.3684C129.113 28.1953 129.509 27.9234 129.855 27.5525L131.098 28.9803C130.652 29.4995 130.09 29.9013 129.41 30.1856C128.743 30.4576 127.976 30.5936 127.111 30.5936Z" fill="black"/>
<path d="M139.789 30.5936C138.985 30.5936 138.25 30.4081 137.582 30.0373C136.927 29.6664 136.402 29.1101 136.006 28.3684C135.623 27.6143 135.431 26.6625 135.431 25.5128C135.431 24.3508 135.617 23.3989 135.988 22.6572C136.371 21.9154 136.89 21.3653 137.545 21.0068C138.2 20.636 138.948 20.4505 139.789 20.4505C140.766 20.4505 141.625 20.6607 142.366 21.081C143.121 21.5013 143.714 22.0885 144.147 22.8426C144.592 23.5967 144.814 24.4867 144.814 25.5128C144.814 26.5388 144.592 27.4351 144.147 28.2015C143.714 28.9556 143.121 29.5428 142.366 29.9631C141.625 30.3834 140.766 30.5936 139.789 30.5936ZM134.3 34.0611V20.5618H136.507V22.8982L136.433 25.5313L136.618 28.1644V34.0611H134.3ZM139.529 28.6095C140.086 28.6095 140.58 28.4858 141.013 28.2386C141.458 27.9914 141.81 27.6329 142.07 27.1631C142.329 26.6934 142.459 26.1432 142.459 25.5128C142.459 24.87 142.329 24.3198 142.07 23.8625C141.81 23.3927 141.458 23.0342 141.013 22.787C140.58 22.5397 140.086 22.4161 139.529 22.4161C138.973 22.4161 138.472 22.5397 138.027 22.787C137.582 23.0342 137.23 23.3927 136.97 23.8625C136.711 24.3198 136.581 24.87 136.581 25.5128C136.581 26.1432 136.711 26.6934 136.97 27.1631C137.23 27.6329 137.582 27.9914 138.027 28.2386C138.472 28.4858 138.973 28.6095 139.529 28.6095Z" fill="black"/>
<path d="M148.817 30.4638V21.9711L149.355 22.5274H145.331V20.5618H154.603V22.5274H150.597L151.135 21.9711V30.4638H148.817Z" fill="black"/>
<path d="M156.284 30.4638V20.5618H161.124C162.323 20.5618 163.262 20.7843 163.942 21.2293C164.634 21.6744 164.981 22.3048 164.981 23.1207C164.981 23.9243 164.659 24.5547 164.016 25.0121C163.374 25.4572 162.521 25.6797 161.457 25.6797L161.736 25.1048C162.935 25.1048 163.825 25.3274 164.406 25.7724C164.999 26.2051 165.296 26.8417 165.296 27.6823C165.296 28.56 164.968 29.2461 164.313 29.7406C163.658 30.2227 162.663 30.4638 161.328 30.4638H156.284ZM158.491 28.7764H161.142C161.773 28.7764 162.249 28.6775 162.57 28.4797C162.891 28.2695 163.052 27.9543 163.052 27.534C163.052 27.0889 162.904 26.7613 162.607 26.5512C162.31 26.341 161.847 26.236 161.216 26.236H158.491V28.7764ZM158.491 24.6969H160.92C161.513 24.6969 161.958 24.5918 162.255 24.3817C162.564 24.1591 162.718 23.8501 162.718 23.4545C162.718 23.0466 162.564 22.7437 162.255 22.5459C161.958 22.3481 161.513 22.2492 160.92 22.2492H158.491V24.6969Z" fill="black"/>
<path d="M172.178 30.5936C171.164 30.5936 170.262 30.3772 169.471 29.9446C168.679 29.4995 168.055 28.8938 167.598 28.1274C167.14 27.3609 166.912 26.4894 166.912 25.5128C166.912 24.5238 167.14 23.6523 167.598 22.8982C168.055 22.1318 168.679 21.5322 169.471 21.0995C170.262 20.6669 171.164 20.4505 172.178 20.4505C173.204 20.4505 174.113 20.6669 174.904 21.0995C175.707 21.5322 176.332 22.1256 176.777 22.8797C177.234 23.6338 177.463 24.5115 177.463 25.5128C177.463 26.4894 177.234 27.3609 176.777 28.1274C176.332 28.8938 175.707 29.4995 174.904 29.9446C174.113 30.3772 173.204 30.5936 172.178 30.5936ZM172.178 28.6095C172.747 28.6095 173.253 28.4858 173.698 28.2386C174.143 27.9914 174.49 27.6329 174.737 27.1631C174.996 26.6934 175.126 26.1432 175.126 25.5128C175.126 24.87 174.996 24.3198 174.737 23.8625C174.49 23.3927 174.143 23.0342 173.698 22.787C173.253 22.5397 172.753 22.4161 172.196 22.4161C171.628 22.4161 171.121 22.5397 170.676 22.787C170.243 23.0342 169.897 23.3927 169.638 23.8625C169.378 24.3198 169.248 24.87 169.248 25.5128C169.248 26.1432 169.378 26.6934 169.638 27.1631C169.897 27.6329 170.243 27.9914 170.676 28.2386C171.121 28.4858 171.622 28.6095 172.178 28.6095Z" fill="black"/>
<path d="M179.752 30.4638V20.5618H184.592C185.791 20.5618 186.731 20.7843 187.411 21.2293C188.103 21.6744 188.449 22.3048 188.449 23.1207C188.449 23.9243 188.128 24.5547 187.485 25.0121C186.842 25.4572 185.989 25.6797 184.926 25.6797L185.204 25.1048C186.403 25.1048 187.293 25.3274 187.874 25.7724C188.468 26.2051 188.764 26.8417 188.764 27.6823C188.764 28.56 188.437 29.2461 187.782 29.7406C187.126 30.2227 186.131 30.4638 184.796 30.4638H179.752ZM181.959 28.7764H184.611C185.241 28.7764 185.717 28.6775 186.039 28.4797C186.36 28.2695 186.521 27.9543 186.521 27.534C186.521 27.0889 186.372 26.7613 186.076 26.5512C185.779 26.341 185.315 26.236 184.685 26.236H181.959V28.7764ZM181.959 24.6969H184.388C184.982 24.6969 185.427 24.5918 185.723 24.3817C186.032 24.1591 186.187 23.8501 186.187 23.4545C186.187 23.0466 186.032 22.7437 185.723 22.5459C185.427 22.3481 184.982 22.2492 184.388 22.2492H181.959V24.6969Z" fill="black"/>
<path d="M197.241 30.4638V28.4611L197.111 28.0346V24.53C197.111 23.8501 196.907 23.3247 196.499 22.9538C196.091 22.5706 195.473 22.379 194.645 22.379C194.089 22.379 193.539 22.4655 192.995 22.6386C192.463 22.8117 192.012 23.0527 191.641 23.3618L190.733 21.6744C191.264 21.2664 191.895 20.9636 192.624 20.7658C193.366 20.5556 194.132 20.4505 194.923 20.4505C196.357 20.4505 197.464 20.7967 198.242 21.4889C199.034 22.1689 199.429 23.2258 199.429 24.6598V30.4638H197.241ZM194.126 30.5936C193.384 30.5936 192.735 30.47 192.179 30.2227C191.623 29.9631 191.19 29.6108 190.881 29.1658C190.584 28.7084 190.436 28.1953 190.436 27.6267C190.436 27.0704 190.566 26.5697 190.825 26.1247C191.097 25.6797 191.536 25.3274 192.142 25.0677C192.748 24.8081 193.551 24.6783 194.552 24.6783H197.427V26.2174H194.719C193.928 26.2174 193.397 26.3472 193.125 26.6068C192.853 26.8541 192.717 27.1631 192.717 27.534C192.717 27.9543 192.884 28.2881 193.217 28.5353C193.551 28.7825 194.015 28.9062 194.608 28.9062C195.177 28.9062 195.684 28.7764 196.129 28.5168C196.586 28.2572 196.914 27.8739 197.111 27.3671L197.501 28.7578C197.278 29.3388 196.876 29.79 196.295 30.1115C195.727 30.4329 195.004 30.5936 194.126 30.5936Z" fill="black"/>
<path d="M204.356 30.4638V21.9711L204.894 22.5274H200.87V20.5618H210.141V22.5274H206.136L206.674 21.9711V30.4638H204.356Z" fill="black"/>
<path d="M216.792 23.8254C218.065 23.8254 219.036 24.1097 219.703 24.6783C220.371 25.247 220.705 26.0505 220.705 27.0889C220.705 28.1644 220.334 29.0051 219.592 29.6108C218.85 30.2042 217.806 30.4947 216.458 30.4823L211.823 30.4638V20.5618H214.14V23.8068L216.792 23.8254ZM216.254 28.7764C216.934 28.7887 217.453 28.6466 217.812 28.3499C218.17 28.0532 218.35 27.6205 218.35 27.0519C218.35 26.4832 218.17 26.0753 217.812 25.828C217.466 25.5684 216.947 25.4324 216.254 25.4201L214.14 25.4015V28.7578L216.254 28.7764Z" fill="black"/>
<path d="M234.116 26.5512C233.646 26.7737 233.145 26.9591 232.614 27.1075C232.094 27.2435 231.544 27.3115 230.963 27.3115C229.715 27.3115 228.744 27.0209 228.052 26.4399C227.36 25.8589 227.014 24.9565 227.014 23.7326V20.5618H229.331V23.5843C229.331 24.2395 229.517 24.7154 229.888 25.0121C230.271 25.3088 230.796 25.4572 231.464 25.4572C231.909 25.4572 232.354 25.4015 232.799 25.2903C233.244 25.179 233.683 25.0245 234.116 24.8267V26.5512ZM233.949 30.4638V20.5618H236.267V30.4638H233.949Z" fill="black"/>
<path d="M244.001 30.5936C242.901 30.5936 241.936 30.3772 241.108 29.9446C240.292 29.4995 239.656 28.8938 239.198 28.1274C238.753 27.3609 238.531 26.4894 238.531 25.5128C238.531 24.5238 238.747 23.6523 239.18 22.8982C239.625 22.1318 240.23 21.5322 240.997 21.0995C241.776 20.6669 242.66 20.4505 243.648 20.4505C244.613 20.4505 245.472 20.6607 246.226 21.081C246.98 21.5013 247.573 22.0947 248.006 22.8611C248.439 23.6276 248.655 24.53 248.655 25.5684C248.655 25.6673 248.649 25.7786 248.637 25.9022C248.637 26.0258 248.63 26.1432 248.618 26.2545H240.366V24.7154H247.394L246.486 25.1976C246.498 24.6289 246.38 24.1282 246.133 23.6956C245.886 23.2629 245.546 22.9229 245.113 22.6757C244.693 22.4285 244.205 22.3048 243.648 22.3048C243.08 22.3048 242.579 22.4285 242.146 22.6757C241.726 22.9229 241.392 23.2691 241.145 23.7141C240.91 24.1468 240.793 24.6598 240.793 25.2532V25.624C240.793 26.2174 240.929 26.7428 241.201 27.2002C241.473 27.6576 241.856 28.0099 242.35 28.2572C242.845 28.5044 243.414 28.628 244.056 28.628C244.613 28.628 245.113 28.5415 245.558 28.3684C246.003 28.1953 246.399 27.9234 246.745 27.5525L247.988 28.9803C247.543 29.4995 246.98 29.9013 246.3 30.1856C245.633 30.4576 244.866 30.5936 244.001 30.5936Z" fill="black"/>
<path d="M256.679 30.5936C255.875 30.5936 255.14 30.4081 254.472 30.0373C253.817 29.6664 253.292 29.1101 252.896 28.3684C252.513 27.6143 252.321 26.6625 252.321 25.5128C252.321 24.3508 252.507 23.3989 252.878 22.6572C253.261 21.9154 253.78 21.3653 254.435 21.0068C255.091 20.636 255.838 20.4505 256.679 20.4505C257.656 20.4505 258.515 20.6607 259.257 21.081C260.011 21.5013 260.604 22.0885 261.037 22.8426C261.482 23.5967 261.704 24.4867 261.704 25.5128C261.704 26.5388 261.482 27.4351 261.037 28.2015C260.604 28.9556 260.011 29.5428 259.257 29.9631C258.515 30.3834 257.656 30.5936 256.679 30.5936ZM251.19 34.0611V20.5618H253.397V22.8982L253.323 25.5313L253.508 28.1644V34.0611H251.19ZM256.419 28.6095C256.976 28.6095 257.47 28.4858 257.903 28.2386C258.348 27.9914 258.7 27.6329 258.96 27.1631C259.219 26.6934 259.349 26.1432 259.349 25.5128C259.349 24.87 259.219 24.3198 258.96 23.8625C258.7 23.3927 258.348 23.0342 257.903 22.787C257.47 22.5397 256.976 22.4161 256.419 22.4161C255.863 22.4161 255.362 22.5397 254.917 22.787C254.472 23.0342 254.12 23.3927 253.86 23.8625C253.601 24.3198 253.471 24.87 253.471 25.5128C253.471 26.1432 253.601 26.6934 253.86 27.1631C254.12 27.6329 254.472 27.9914 254.917 28.2386C255.362 28.4858 255.863 28.6095 256.419 28.6095Z" fill="black"/>
<path d="M268.628 30.5936C267.528 30.5936 266.564 30.3772 265.736 29.9446C264.92 29.4995 264.283 28.8938 263.826 28.1274C263.381 27.3609 263.158 26.4894 263.158 25.5128C263.158 24.5238 263.374 23.6523 263.807 22.8982C264.252 22.1318 264.858 21.5322 265.624 21.0995C266.403 20.6669 267.287 20.4505 268.276 20.4505C269.24 20.4505 270.099 20.6607 270.853 21.081C271.608 21.5013 272.201 22.0947 272.634 22.8611C273.066 23.6276 273.283 24.53 273.283 25.5684C273.283 25.6673 273.276 25.7786 273.264 25.9022C273.264 26.0258 273.258 26.1432 273.245 26.2545H264.994V24.7154H272.022L271.113 25.1976C271.125 24.6289 271.008 24.1282 270.761 23.6956C270.513 23.2629 270.174 22.9229 269.741 22.6757C269.321 22.4285 268.832 22.3048 268.276 22.3048C267.707 22.3048 267.207 22.4285 266.774 22.6757C266.354 22.9229 266.02 23.2691 265.773 23.7141C265.538 24.1468 265.42 24.6598 265.42 25.2532V25.624C265.42 26.2174 265.556 26.7428 265.828 27.2002C266.1 27.6576 266.483 28.0099 266.978 28.2572C267.472 28.5044 268.041 28.628 268.684 28.628C269.24 28.628 269.741 28.5415 270.186 28.3684C270.631 28.1953 271.026 27.9234 271.373 27.5525L272.615 28.9803C272.17 29.4995 271.608 29.9013 270.928 30.1856C270.26 30.4576 269.494 30.5936 268.628 30.5936Z" fill="black"/>
<path d="M278.789 30.6307C278.034 30.6307 277.287 30.5441 276.545 30.3711C275.815 30.1856 275.154 29.926 274.561 29.5923L275.21 27.8677C275.692 28.1397 276.236 28.3499 276.842 28.4982C277.447 28.6466 278.053 28.7207 278.659 28.7207C279.178 28.7207 279.623 28.6713 279.994 28.5724C280.365 28.4611 280.649 28.3004 280.847 28.0903C281.057 27.8801 281.162 27.6391 281.162 27.3671C281.162 26.9715 280.989 26.6748 280.643 26.477C280.309 26.2669 279.827 26.1618 279.197 26.1618H277.287V24.6042H279.011C279.407 24.6042 279.74 24.5609 280.012 24.4744C280.297 24.3878 280.513 24.258 280.661 24.085C280.81 23.9119 280.884 23.7079 280.884 23.473C280.884 23.2382 280.791 23.0342 280.606 22.8611C280.433 22.6757 280.179 22.5397 279.846 22.4532C279.512 22.3543 279.11 22.3048 278.64 22.3048C278.146 22.3048 277.633 22.3666 277.101 22.4903C276.582 22.6139 276.05 22.7931 275.506 23.028L274.913 21.3221C275.544 21.0377 276.155 20.8214 276.749 20.673C277.355 20.5123 277.954 20.4258 278.547 20.4134C279.45 20.3764 280.253 20.4691 280.958 20.6916C281.663 20.9141 282.219 21.2355 282.627 21.6558C283.035 22.0761 283.239 22.5706 283.239 23.1393C283.239 23.609 283.091 24.0355 282.794 24.4187C282.51 24.7896 282.114 25.0801 281.607 25.2903C281.113 25.5004 280.544 25.6055 279.901 25.6055L279.975 25.1048C281.076 25.1048 281.941 25.3274 282.571 25.7724C283.202 26.2051 283.517 26.7984 283.517 27.5525C283.517 28.1583 283.313 28.696 282.905 29.1658C282.497 29.6232 281.935 29.9817 281.218 30.2413C280.513 30.5009 279.703 30.6307 278.789 30.6307Z" fill="black"/>
<path d="M291.214 30.4638V17.4836H296.555C297.704 17.4836 298.687 17.6691 299.503 18.0399C300.331 18.4108 300.968 18.9424 301.413 19.6346C301.858 20.3269 302.081 21.149 302.081 22.1009C302.081 23.0527 301.858 23.8748 301.413 24.5671C300.968 25.2594 300.331 25.7909 299.503 26.1618C298.687 26.5326 297.704 26.7181 296.555 26.7181H292.549L293.625 25.587V30.4638H291.214ZM293.625 25.8466L292.549 24.6783H296.443C297.507 24.6783 298.304 24.4558 298.835 24.0108C299.379 23.5534 299.651 22.9168 299.651 22.1009C299.651 21.2726 299.379 20.636 298.835 20.1909C298.304 19.7459 297.507 19.5234 296.443 19.5234H292.549L293.625 18.3366V25.8466Z" fill="black"/>
<path d="M310.275 30.4638V28.4611L310.146 28.0346V24.53C310.146 23.8501 309.942 23.3247 309.534 22.9538C309.126 22.5706 308.508 22.379 307.679 22.379C307.123 22.379 306.573 22.4655 306.029 22.6386C305.497 22.8117 305.046 23.0527 304.675 23.3618L303.767 21.6744C304.298 21.2664 304.929 20.9636 305.658 20.7658C306.4 20.5556 307.166 20.4505 307.957 20.4505C309.391 20.4505 310.498 20.7967 311.277 21.4889C312.068 22.1689 312.463 23.2258 312.463 24.6598V30.4638H310.275ZM307.16 30.5936C306.418 30.5936 305.769 30.47 305.213 30.2227C304.657 29.9631 304.224 29.6108 303.915 29.1658C303.618 28.7084 303.47 28.1953 303.47 27.6267C303.47 27.0704 303.6 26.5697 303.859 26.1247C304.131 25.6797 304.57 25.3274 305.176 25.0677C305.782 24.8081 306.585 24.6783 307.587 24.6783H310.461V26.2174H307.754C306.962 26.2174 306.431 26.3472 306.159 26.6068C305.887 26.8541 305.751 27.1631 305.751 27.534C305.751 27.9543 305.918 28.2881 306.252 28.5353C306.585 28.7825 307.049 28.9062 307.642 28.9062C308.211 28.9062 308.718 28.7764 309.163 28.5168C309.62 28.2572 309.948 27.8739 310.146 27.3671L310.535 28.7578C310.312 29.3388 309.911 29.79 309.33 30.1115C308.761 30.4329 308.038 30.5936 307.16 30.5936Z" fill="black"/>
<path d="M316.073 34.1909C315.591 34.1909 315.109 34.1106 314.627 33.9499C314.144 33.7892 313.743 33.5666 313.421 33.2823L314.348 31.5764C314.583 31.7865 314.849 31.9534 315.146 32.077C315.443 32.2006 315.745 32.2625 316.054 32.2625C316.475 32.2625 316.815 32.1574 317.074 31.9472C317.334 31.7371 317.575 31.3847 317.797 30.8903L318.372 29.5923L318.558 29.3141L322.303 20.5618H324.529L319.893 31.2611C319.584 32.0028 319.238 32.59 318.854 33.0227C318.484 33.4554 318.063 33.7583 317.594 33.9313C317.136 34.1044 316.629 34.1909 316.073 34.1909ZM318.113 30.8161L313.644 20.5618H316.054L319.689 29.1101L318.113 30.8161Z" fill="black"/>
<path d="M326.2 30.4638V17.4836H331.54C332.69 17.4836 333.673 17.6691 334.489 18.0399C335.317 18.4108 335.953 18.9424 336.398 19.6346C336.844 20.3269 337.066 21.149 337.066 22.1009C337.066 23.0527 336.844 23.8748 336.398 24.5671C335.953 25.2594 335.317 25.7909 334.489 26.1618C333.673 26.5326 332.69 26.7181 331.54 26.7181H327.535L328.61 25.587V30.4638H326.2ZM328.61 25.8466L327.535 24.6783H331.429C332.492 24.6783 333.289 24.4558 333.821 24.0108C334.365 23.5534 334.637 22.9168 334.637 22.1009C334.637 21.2726 334.365 20.636 333.821 20.1909C333.289 19.7459 332.492 19.5234 331.429 19.5234H327.535L328.61 18.3366V25.8466Z" fill="black"/>
<path d="M345.261 30.4638V28.4611L345.131 28.0346V24.53C345.131 23.8501 344.927 23.3247 344.519 22.9538C344.111 22.5706 343.493 22.379 342.665 22.379C342.109 22.379 341.558 22.4655 341.015 22.6386C340.483 22.8117 340.032 23.0527 339.661 23.3618L338.752 21.6744C339.284 21.2664 339.914 20.9636 340.644 20.7658C341.385 20.5556 342.152 20.4505 342.943 20.4505C344.377 20.4505 345.483 20.7967 346.262 21.4889C347.053 22.1689 347.449 23.2258 347.449 24.6598V30.4638H345.261ZM342.146 30.5936C341.404 30.5936 340.755 30.47 340.199 30.2227C339.642 29.9631 339.21 29.6108 338.901 29.1658C338.604 28.7084 338.456 28.1953 338.456 27.6267C338.456 27.0704 338.585 26.5697 338.845 26.1247C339.117 25.6797 339.556 25.3274 340.162 25.0677C340.767 24.8081 341.571 24.6783 342.572 24.6783H345.446V26.2174H342.739C341.948 26.2174 341.416 26.3472 341.144 26.6068C340.872 26.8541 340.736 27.1631 340.736 27.534C340.736 27.9543 340.903 28.2881 341.237 28.5353C341.571 28.7825 342.034 28.9062 342.628 28.9062C343.196 28.9062 343.703 28.7764 344.148 28.5168C344.606 28.2572 344.933 27.8739 345.131 27.3671L345.52 28.7578C345.298 29.3388 344.896 29.79 344.315 30.1115C343.747 30.4329 343.023 30.5936 342.146 30.5936Z" fill="black"/>
<path d="M350.424 30.4638V16.7048H352.742V30.4638H350.424Z" fill="black"/>
</svg>
