<svg width="400" height="49" viewBox="0 0 400 49" fill="none" xmlns="http://www.w3.org/2000/svg">
<rect width="400" height="49.0066" rx="10.596" fill="#FFDD55"/>
<path d="M48.3771 14.5978C47.814 13.6416 47.0525 12.9564 46.0892 12.5422C45.1251 12.128 43.8169 11.9204 42.1613 11.9204H37.9534L37.9518 11.9326H32.7543L27.8146 36.2486H32.7543L34.6948 26.6958H42.3202C42.7623 26.6958 44.1685 26.2747 44.8057 25.969C45.5541 25.6103 46.2539 25.0823 46.9034 24.3867C47.553 23.6911 48.1022 22.7619 48.5492 21.6016C48.9963 20.4414 49.2202 19.2473 49.2202 18.0202C49.2202 16.6942 48.9386 15.5539 48.3771 14.5978Z" fill="#38447E"/>
<path d="M46.6943 15.4062H36.9885L34.6948 26.6958H42.3202C42.7623 26.6958 44.1685 26.2746 44.8057 25.9689C45.5541 25.6103 46.2539 25.0823 46.9034 24.3867C47.553 23.6911 48.1022 22.7618 48.5492 21.6016C48.9962 20.4414 49.2202 19.2473 49.2202 18.0202C49.2202 17.124 49.0802 16.3198 48.8242 15.593C48.1993 15.4801 47.4847 15.4201 46.6943 15.4062Z" fill="#212C63"/>
<path d="M52.6104 18.0715C52.0473 17.1153 51.2858 16.4302 50.3225 16.0159C49.8961 15.8335 49.3922 15.6972 48.8307 15.5947L48.9419 15.9664L48.9369 15.9682C49.118 16.5952 49.2201 17.2743 49.2201 18.0202C49.2201 19.2465 48.9962 20.4406 48.5491 21.6008C48.1021 22.761 47.553 23.6893 46.9034 24.3858C46.2538 25.0823 45.554 25.6094 44.8056 25.9681C44.1692 26.2738 42.763 26.695 42.3201 26.695H34.6948L32.0487 39.7214H36.9885L38.929 30.1687H46.5551C46.9972 30.1687 48.4026 29.7484 49.0398 29.4418C49.789 29.0832 50.4888 28.5551 51.1384 27.8595C51.788 27.1639 52.3363 26.2347 52.7833 25.0745C53.2304 23.9143 53.4551 22.7202 53.4551 21.494C53.4551 20.1679 53.1736 19.0276 52.6104 18.0715Z" fill="#5FCCFF"/>
<path d="M79.8888 29.9204V16.9403H85.563C86.9722 16.9403 88.2084 17.2122 89.2716 17.7562C90.3347 18.3001 91.163 19.0542 91.7563 20.0184C92.3497 20.9827 92.6464 22.12 92.6464 23.4303C92.6464 24.7284 92.3497 25.8657 91.7563 26.8423C91.163 27.8065 90.3347 28.5606 89.2716 29.1045C88.2084 29.6484 86.9722 29.9204 85.563 29.9204H79.8888ZM82.2994 27.8807H85.4517C86.4283 27.8807 87.2689 27.6952 87.9736 27.3244C88.6906 26.9535 89.2407 26.4343 89.6239 25.7668C90.0195 25.0992 90.2173 24.3204 90.2173 23.4303C90.2173 22.5279 90.0195 21.7491 89.6239 21.0939C89.2407 20.4264 88.6906 19.9072 87.9736 19.5363C87.2689 19.1654 86.4283 18.98 85.4517 18.98H82.2994V27.8807ZM99.4364 30.0502C98.4227 30.0502 97.5202 29.8339 96.7291 29.4012C95.9379 28.9562 95.3136 28.3504 94.8562 27.584C94.3988 26.8175 94.1701 25.946 94.1701 24.9694C94.1701 23.9805 94.3988 23.1089 94.8562 22.3548C95.3136 21.5884 95.9379 20.9888 96.7291 20.5562C97.5202 20.1235 98.4227 19.9072 99.4364 19.9072C100.462 19.9072 101.371 20.1235 102.162 20.5562C102.966 20.9888 103.59 21.5822 104.035 22.3363C104.492 23.0904 104.721 23.9681 104.721 24.9694C104.721 25.946 104.492 26.8175 104.035 27.584C103.59 28.3504 102.966 28.9562 102.162 29.4012C101.371 29.8339 100.462 30.0502 99.4364 30.0502ZM99.4364 28.0661C100.005 28.0661 100.512 27.9425 100.957 27.6952C101.402 27.448 101.748 27.0895 101.995 26.6197C102.255 26.15 102.385 25.5999 102.385 24.9694C102.385 24.3266 102.255 23.7765 101.995 23.3191C101.748 22.8493 101.402 22.4908 100.957 22.2436C100.512 21.9963 100.011 21.8727 99.4549 21.8727C98.8862 21.8727 98.3794 21.9963 97.9344 22.2436C97.5017 22.4908 97.1556 22.8493 96.896 23.3191C96.6364 23.7765 96.5066 24.3266 96.5066 24.9694C96.5066 25.5999 96.6364 26.15 96.896 26.6197C97.1556 27.0895 97.5017 27.448 97.9344 27.6952C98.3794 27.9425 98.8801 28.0661 99.4364 28.0661ZM112.556 19.9072C113.347 19.9072 114.052 20.0617 114.67 20.3707C115.301 20.6798 115.795 21.1557 116.153 21.7986C116.512 22.429 116.691 23.2449 116.691 24.2462V29.9204H114.373V24.5429C114.373 23.6652 114.163 23.01 113.743 22.5774C113.335 22.1447 112.76 21.9284 112.018 21.9284C111.474 21.9284 110.992 22.0396 110.572 22.2621C110.152 22.4846 109.824 22.8184 109.589 23.2635C109.367 23.6961 109.255 24.2462 109.255 24.9138V29.9204H106.938V20.0184H109.144V22.6886L108.755 21.8727C109.101 21.2423 109.602 20.7601 110.257 20.4264C110.924 20.0802 111.691 19.9072 112.556 19.9072ZM125.732 29.9204V27.9178L125.602 27.4913V23.9866C125.602 23.3067 125.399 22.7813 124.991 22.4105C124.583 22.0273 123.965 21.8356 123.136 21.8356C122.58 21.8356 122.03 21.9222 121.486 22.0952C120.954 22.2683 120.503 22.5094 120.132 22.8184L119.224 21.131C119.755 20.7231 120.386 20.4202 121.115 20.2224C121.857 20.0122 122.623 19.9072 123.414 19.9072C124.848 19.9072 125.955 20.2533 126.734 20.9456C127.525 21.6255 127.92 22.6824 127.92 24.1164V29.9204H125.732ZM122.617 30.0502C121.875 30.0502 121.226 29.9266 120.67 29.6794C120.114 29.4197 119.681 29.0674 119.372 28.6224C119.075 28.165 118.927 27.652 118.927 27.0833C118.927 26.527 119.057 26.0264 119.316 25.5813C119.588 25.1363 120.027 24.784 120.633 24.5244C121.239 24.2648 122.042 24.135 123.044 24.135H125.918V25.6741H123.21C122.419 25.6741 121.888 25.8039 121.616 26.0635C121.344 26.3107 121.208 26.6197 121.208 26.9906C121.208 27.4109 121.375 27.7447 121.708 27.9919C122.042 28.2392 122.506 28.3628 123.099 28.3628C123.668 28.3628 124.175 28.233 124.62 27.9734C125.077 27.7138 125.405 27.3306 125.602 26.8237L125.992 28.2144C125.769 28.7955 125.368 29.2467 124.787 29.5681C124.218 29.8895 123.495 30.0502 122.617 30.0502ZM134.622 30.0502C133.534 30.0502 132.694 29.7721 132.1 29.2158C131.507 28.6471 131.21 27.8127 131.21 26.7125V17.8303H133.528V26.6568C133.528 27.1266 133.646 27.4913 133.881 27.7509C134.128 28.0105 134.468 28.1403 134.9 28.1403C135.42 28.1403 135.852 28.0043 136.198 27.7323L136.847 29.3827C136.575 29.6052 136.242 29.7721 135.846 29.8833C135.45 29.9946 135.043 30.0502 134.622 30.0502ZM129.579 21.9469V20.0926H136.18V21.9469H129.579ZM143.082 30.0502C141.982 30.0502 141.018 29.8339 140.19 29.4012C139.374 28.9562 138.737 28.3504 138.28 27.584C137.835 26.8175 137.612 25.946 137.612 24.9694C137.612 23.9805 137.829 23.1089 138.261 22.3548C138.706 21.5884 139.312 20.9888 140.079 20.5562C140.857 20.1235 141.741 19.9072 142.73 19.9072C143.694 19.9072 144.554 20.1173 145.308 20.5376C146.062 20.9579 146.655 21.5513 147.088 22.3178C147.52 23.0842 147.737 23.9866 147.737 25.025C147.737 25.1239 147.731 25.2352 147.718 25.3588C147.718 25.4824 147.712 25.5999 147.7 25.7111H139.448V24.1721H146.476L145.567 24.6542C145.58 24.0855 145.462 23.5849 145.215 23.1522C144.968 22.7195 144.628 22.3796 144.195 22.1323C143.775 21.8851 143.286 21.7615 142.73 21.7615C142.162 21.7615 141.661 21.8851 141.228 22.1323C140.808 22.3796 140.474 22.7257 140.227 23.1707C139.992 23.6034 139.875 24.1164 139.875 24.7098V25.0807C139.875 25.6741 140.011 26.1994 140.282 26.6568C140.554 27.1142 140.938 27.4665 141.432 27.7138C141.927 27.961 142.495 28.0846 143.138 28.0846C143.694 28.0846 144.195 27.9981 144.64 27.825C145.085 27.652 145.481 27.38 145.827 27.0092L147.069 28.437C146.624 28.9562 146.062 29.3579 145.382 29.6423C144.714 29.9142 143.948 30.0502 143.082 30.0502ZM157.276 29.9204L153.642 20.0184H155.83L158.945 28.7522H157.906L161.17 20.0184H163.117L166.288 28.7522H165.268L168.476 20.0184H170.534L166.881 29.9204H164.656L161.763 22.188H162.45L159.501 29.9204H157.276ZM172.128 29.9204V20.0184H174.446V29.9204H172.128ZM173.296 18.3866C172.864 18.3866 172.505 18.2507 172.221 17.9787C171.949 17.7067 171.813 17.3791 171.813 16.9959C171.813 16.6003 171.949 16.2727 172.221 16.0131C172.505 15.7412 172.864 15.6052 173.296 15.6052C173.729 15.6052 174.081 15.735 174.353 15.9946C174.637 16.2418 174.78 16.5571 174.78 16.9403C174.78 17.3482 174.644 17.6944 174.372 17.9787C174.1 18.2507 173.741 18.3866 173.296 18.3866ZM181.215 30.0502C180.127 30.0502 179.287 29.7721 178.693 29.2158C178.1 28.6471 177.803 27.8127 177.803 26.7125V17.8303H180.121V26.6568C180.121 27.1266 180.239 27.4913 180.474 27.7509C180.721 28.0105 181.061 28.1403 181.493 28.1403C182.013 28.1403 182.445 28.0043 182.791 27.7323L183.44 29.3827C183.168 29.6052 182.835 29.7721 182.439 29.8833C182.044 29.9946 181.636 30.0502 181.215 30.0502ZM176.172 21.9469V20.0926H182.773V21.9469H176.172ZM190.966 19.9072C191.757 19.9072 192.462 20.0617 193.08 20.3707C193.71 20.6798 194.205 21.1557 194.563 21.7986C194.922 22.429 195.101 23.2449 195.101 24.2462V29.9204H192.783V24.5429C192.783 23.6652 192.573 23.01 192.152 22.5774C191.745 22.1447 191.17 21.9284 190.428 21.9284C189.884 21.9284 189.402 22.0396 188.982 22.2621C188.561 22.4846 188.234 22.8184 187.999 23.2635C187.776 23.6961 187.665 24.2462 187.665 24.9138V29.9204H185.347V16.1615H187.665V22.6886L187.164 21.8727C187.511 21.2423 188.011 20.7601 188.666 20.4264C189.334 20.0802 190.1 19.9072 190.966 19.9072ZM203.388 29.9204V16.9403H208.729C209.878 16.9403 210.861 17.1257 211.677 17.4966C212.505 17.8674 213.142 18.399 213.587 19.0913C214.032 19.7835 214.255 20.6056 214.255 21.5575C214.255 22.5094 214.032 23.3314 213.587 24.0237C213.142 24.716 212.505 25.2476 211.677 25.6184C210.861 25.9893 209.878 26.1747 208.729 26.1747H204.723L205.799 25.0436V29.9204H203.388ZM205.799 25.3032L204.723 24.135H208.618C209.681 24.135 210.478 23.9125 211.01 23.4674C211.554 23.01 211.825 22.3734 211.825 21.5575C211.825 20.7292 211.554 20.0926 211.01 19.6476C210.478 19.2025 209.681 18.98 208.618 18.98H204.723L205.799 17.7933V25.3032ZM222.449 29.9204V27.9178L222.32 27.4913V23.9866C222.32 23.3067 222.116 22.7813 221.708 22.4105C221.3 22.0273 220.682 21.8356 219.853 21.8356C219.297 21.8356 218.747 21.9222 218.203 22.0952C217.672 22.2683 217.22 22.5094 216.849 22.8184L215.941 21.131C216.472 20.7231 217.103 20.4202 217.832 20.2224C218.574 20.0122 219.34 19.9072 220.132 19.9072C221.566 19.9072 222.672 20.2533 223.451 20.9456C224.242 21.6255 224.638 22.6824 224.638 24.1164V29.9204H222.449ZM219.334 30.0502C218.593 30.0502 217.944 29.9266 217.387 29.6794C216.831 29.4197 216.398 29.0674 216.089 28.6224C215.793 28.165 215.644 27.652 215.644 27.0833C215.644 26.527 215.774 26.0264 216.034 25.5813C216.306 25.1363 216.744 24.784 217.35 24.5244C217.956 24.2648 218.759 24.135 219.761 24.135H222.635V25.6741H219.928C219.136 25.6741 218.605 25.8039 218.333 26.0635C218.061 26.3107 217.925 26.6197 217.925 26.9906C217.925 27.4109 218.092 27.7447 218.426 27.9919C218.759 28.2392 219.223 28.3628 219.816 28.3628C220.385 28.3628 220.892 28.233 221.337 27.9734C221.794 27.7138 222.122 27.3306 222.32 26.8237L222.709 28.2144C222.487 28.7955 222.085 29.2467 221.504 29.5681C220.935 29.8895 220.212 30.0502 219.334 30.0502ZM228.247 33.6476C227.765 33.6476 227.283 33.5672 226.801 33.4065C226.319 33.2458 225.917 33.0233 225.595 32.739L226.523 31.033C226.757 31.2431 227.023 31.41 227.32 31.5337C227.617 31.6573 227.919 31.7191 228.229 31.7191C228.649 31.7191 228.989 31.614 229.248 31.4039C229.508 31.1937 229.749 30.8414 229.972 30.3469L230.546 29.0489L230.732 28.7707L234.478 20.0184H236.703L232.067 30.7178C231.758 31.4595 231.412 32.0467 231.029 32.4794C230.658 32.912 230.237 33.2149 229.768 33.388C229.31 33.561 228.803 33.6476 228.247 33.6476ZM230.287 30.2727L225.818 20.0184H228.229L231.863 28.5668L230.287 30.2727ZM238.374 29.9204V16.9403H243.714C244.864 16.9403 245.847 17.1257 246.663 17.4966C247.491 17.8674 248.128 18.399 248.573 19.0913C249.018 19.7835 249.24 20.6056 249.24 21.5575C249.24 22.5094 249.018 23.3314 248.573 24.0237C248.128 24.716 247.491 25.2476 246.663 25.6184C245.847 25.9893 244.864 26.1747 243.714 26.1747H239.709L240.785 25.0436V29.9204H238.374ZM240.785 25.3032L239.709 24.135H243.603C244.666 24.135 245.464 23.9125 245.995 23.4674C246.539 23.01 246.811 22.3734 246.811 21.5575C246.811 20.7292 246.539 20.0926 245.995 19.6476C245.464 19.2025 244.666 18.98 243.603 18.98H239.709L240.785 17.7933V25.3032ZM257.435 29.9204V27.9178L257.305 27.4913V23.9866C257.305 23.3067 257.101 22.7813 256.693 22.4105C256.285 22.0273 255.667 21.8356 254.839 21.8356C254.283 21.8356 253.733 21.9222 253.189 22.0952C252.657 22.2683 252.206 22.5094 251.835 22.8184L250.926 21.131C251.458 20.7231 252.088 20.4202 252.818 20.2224C253.559 20.0122 254.326 19.9072 255.117 19.9072C256.551 19.9072 257.658 20.2533 258.436 20.9456C259.227 21.6255 259.623 22.6824 259.623 24.1164V29.9204H257.435ZM254.32 30.0502C253.578 30.0502 252.929 29.9266 252.373 29.6794C251.816 29.4197 251.384 29.0674 251.075 28.6224C250.778 28.165 250.63 27.652 250.63 27.0833C250.63 26.527 250.759 26.0264 251.019 25.5813C251.291 25.1363 251.73 24.784 252.336 24.5244C252.941 24.2648 253.745 24.135 254.746 24.135H257.62V25.6741H254.913C254.122 25.6741 253.59 25.8039 253.318 26.0635C253.046 26.3107 252.91 26.6197 252.91 26.9906C252.91 27.4109 253.077 27.7447 253.411 27.9919C253.745 28.2392 254.208 28.3628 254.802 28.3628C255.371 28.3628 255.877 28.233 256.322 27.9734C256.78 27.7138 257.107 27.3306 257.305 26.8237L257.695 28.2144C257.472 28.7955 257.07 29.2467 256.489 29.5681C255.921 29.8895 255.197 30.0502 254.32 30.0502ZM262.598 29.9204V16.1615H264.916V29.9204H262.598Z" fill="black"/>
</svg>
