<svg width="400" height="50" viewBox="0 0 400 50" fill="none" xmlns="http://www.w3.org/2000/svg">
<path d="M0 10.596C0 4.744 4.744 0 10.596 0H389.404C395.256 0 400 4.744 400 10.596V38.4106C400 44.2626 395.256 49.0066 389.404 49.0066H10.596C4.74401 49.0066 0 44.2626 0 38.4106V10.596Z" fill="#413F7C"/>
<path d="M79.8887 30.4634V17.4833H85.5629C86.9722 17.4833 88.2084 17.7553 89.2715 18.2992C90.3347 18.8431 91.1629 19.5972 91.7563 20.5614C92.3497 21.5257 92.6463 22.663 92.6463 23.9734C92.6463 25.2714 92.3497 26.4087 91.7563 27.3853C91.1629 28.3495 90.3347 29.1036 89.2715 29.6475C88.2084 30.1915 86.9722 30.4634 85.5629 30.4634H79.8887ZM82.2993 28.4237H85.4516C86.4282 28.4237 87.2689 28.2383 87.9735 27.8674C88.6905 27.4965 89.2406 26.9773 89.6238 26.3098C90.0194 25.6422 90.2172 24.8634 90.2172 23.9734C90.2172 23.0709 90.0194 22.2921 89.6238 21.6369C89.2406 20.9694 88.6905 20.4502 87.9735 20.0793C87.2689 19.7085 86.4282 19.523 85.4516 19.523H82.2993V28.4237Z" fill="white"/>
<path d="M99.4363 30.5932C98.4226 30.5932 97.5202 30.3769 96.729 29.9442C95.9378 29.4992 95.3136 28.8934 94.8562 28.127C94.3988 27.3606 94.1701 26.489 94.1701 25.5124C94.1701 24.5235 94.3988 23.6519 94.8562 22.8979C95.3136 22.1314 95.9378 21.5319 96.729 21.0992C97.5202 20.6665 98.4226 20.4502 99.4363 20.4502C100.462 20.4502 101.371 20.6665 102.162 21.0992C102.966 21.5319 103.59 22.1252 104.035 22.8793C104.492 23.6334 104.721 24.5111 104.721 25.5124C104.721 26.489 104.492 27.3606 104.035 28.127C103.59 28.8934 102.966 29.4992 102.162 29.9442C101.371 30.3769 100.462 30.5932 99.4363 30.5932ZM99.4363 28.6091C100.005 28.6091 100.512 28.4855 100.957 28.2383C101.402 27.991 101.748 27.6325 101.995 27.1628C102.255 26.693 102.385 26.1429 102.385 25.5124C102.385 24.8696 102.255 24.3195 101.995 23.8621C101.748 23.3923 101.402 23.0338 100.957 22.7866C100.512 22.5394 100.011 22.4157 99.4548 22.4157C98.8862 22.4157 98.3793 22.5394 97.9343 22.7866C97.5016 23.0338 97.1555 23.3923 96.8959 23.8621C96.6363 24.3195 96.5065 24.8696 96.5065 25.5124C96.5065 26.1429 96.6363 26.693 96.8959 27.1628C97.1555 27.6325 97.5016 27.991 97.9343 28.2383C98.3793 28.4855 98.88 28.6091 99.4363 28.6091Z" fill="white"/>
<path d="M112.556 20.4502C113.347 20.4502 114.052 20.6047 114.67 20.9138C115.3 21.2228 115.795 21.6987 116.153 22.3416C116.512 22.972 116.691 23.7879 116.691 24.7893V30.4634H114.373V25.0859C114.373 24.2082 114.163 23.553 113.743 23.1204C113.335 22.6877 112.76 22.4714 112.018 22.4714C111.474 22.4714 110.992 22.5826 110.572 22.8051C110.152 23.0277 109.824 23.3614 109.589 23.8065C109.367 24.2391 109.255 24.7893 109.255 25.4568V30.4634H106.938V20.5614H109.144V23.2316L108.755 22.4157C109.101 21.7853 109.602 21.3032 110.257 20.9694C110.924 20.6232 111.691 20.4502 112.556 20.4502Z" fill="white"/>
<path d="M124.304 30.5932C123.204 30.5932 122.24 30.3769 121.411 29.9442C120.595 29.4992 119.959 28.8934 119.501 28.127C119.056 27.3606 118.834 26.489 118.834 25.5124C118.834 24.5235 119.05 23.6519 119.483 22.8979C119.928 22.1314 120.534 21.5319 121.3 21.0992C122.079 20.6665 122.963 20.4502 123.952 20.4502C124.916 20.4502 125.775 20.6603 126.529 21.0806C127.283 21.501 127.877 22.0943 128.309 22.8608C128.742 23.6272 128.958 24.5296 128.958 25.5681C128.958 25.667 128.952 25.7782 128.94 25.9018C128.94 26.0255 128.934 26.1429 128.921 26.2542H120.67V24.7151H127.697L126.789 25.1972C126.801 24.6285 126.684 24.1279 126.436 23.6952C126.189 23.2625 125.849 22.9226 125.417 22.6753C124.996 22.4281 124.508 22.3045 123.952 22.3045C123.383 22.3045 122.882 22.4281 122.45 22.6753C122.029 22.9226 121.696 23.2687 121.448 23.7138C121.213 24.1464 121.096 24.6595 121.096 25.2528V25.6237C121.096 26.2171 121.232 26.7425 121.504 27.1998C121.776 27.6572 122.159 28.0096 122.654 28.2568C123.148 28.504 123.717 28.6277 124.36 28.6277C124.916 28.6277 125.417 28.5411 125.862 28.3681C126.307 28.195 126.702 27.923 127.048 27.5522L128.291 28.98C127.846 29.4992 127.283 29.901 126.603 30.1853C125.936 30.4572 125.169 30.5932 124.304 30.5932Z" fill="white"/>
<path d="M135.839 30.5932C134.739 30.5932 133.775 30.3769 132.946 29.9442C132.13 29.4992 131.494 28.8934 131.036 28.127C130.591 27.3606 130.369 26.489 130.369 25.5124C130.369 24.5235 130.585 23.6519 131.018 22.8979C131.463 22.1314 132.069 21.5319 132.835 21.0992C133.614 20.6665 134.498 20.4502 135.487 20.4502C136.451 20.4502 137.31 20.6603 138.064 21.0806C138.818 21.501 139.412 22.0943 139.844 22.8608C140.277 23.6272 140.493 24.5296 140.493 25.5681C140.493 25.667 140.487 25.7782 140.475 25.9018C140.475 26.0255 140.469 26.1429 140.456 26.2542H132.205V24.7151H139.232L138.324 25.1972C138.336 24.6285 138.219 24.1279 137.971 23.6952C137.724 23.2625 137.384 22.9226 136.952 22.6753C136.531 22.4281 136.043 22.3045 135.487 22.3045C134.918 22.3045 134.417 22.4281 133.985 22.6753C133.564 22.9226 133.231 23.2687 132.983 23.7138C132.749 24.1464 132.631 24.6595 132.631 25.2528V25.6237C132.631 26.2171 132.767 26.7425 133.039 27.1998C133.311 27.6572 133.694 28.0096 134.189 28.2568C134.683 28.504 135.252 28.6277 135.895 28.6277C136.451 28.6277 136.952 28.5411 137.397 28.3681C137.842 28.195 138.237 27.923 138.583 27.5522L139.826 28.98C139.381 29.4992 138.818 29.901 138.138 30.1853C137.471 30.4572 136.704 30.5932 135.839 30.5932Z" fill="white"/>
<path d="M142.72 30.4634V20.5614H144.926V23.2873L144.667 22.4899C144.964 21.8224 145.427 21.3155 146.058 20.9694C146.7 20.6232 147.498 20.4502 148.45 20.4502V22.6568C148.351 22.6321 148.258 22.6197 148.171 22.6197C148.085 22.6074 147.998 22.6012 147.912 22.6012C147.034 22.6012 146.336 22.8608 145.817 23.38C145.297 23.8868 145.038 24.6471 145.038 25.6608V30.4634H142.72Z" fill="white"/>
<path d="M158.264 30.4634L154.018 20.5614H156.428L160.081 29.2952H158.895L162.677 20.5614H164.903L160.656 30.4634H158.264Z" fill="white"/>
<path d="M166.351 30.4634V20.5614H168.669V30.4634H166.351ZM167.52 18.9296C167.087 18.9296 166.728 18.7937 166.444 18.5217C166.172 18.2497 166.036 17.9221 166.036 17.5389C166.036 17.1433 166.172 16.8157 166.444 16.5561C166.728 16.2842 167.087 16.1482 167.52 16.1482C167.952 16.1482 168.305 16.278 168.577 16.5376C168.861 16.7848 169.003 17.1001 169.003 17.4833C169.003 17.8912 168.867 18.2374 168.595 18.5217C168.323 18.7937 167.965 18.9296 167.52 18.9296Z" fill="white"/>
<path d="M177.812 30.4634V28.4608L177.682 28.0343V24.5296C177.682 23.8497 177.478 23.3244 177.07 22.9535C176.662 22.5703 176.044 22.3787 175.216 22.3787C174.66 22.3787 174.11 22.4652 173.566 22.6383C173.034 22.8113 172.583 23.0524 172.212 23.3614L171.303 21.674C171.835 21.2661 172.466 20.9632 173.195 20.7654C173.937 20.5553 174.703 20.4502 175.494 20.4502C176.928 20.4502 178.035 20.7963 178.813 21.4886C179.605 22.1685 180 23.2255 180 24.6595V30.4634H177.812ZM174.697 30.5932C173.955 30.5932 173.306 30.4696 172.75 30.2224C172.194 29.9628 171.761 29.6104 171.452 29.1654C171.155 28.708 171.007 28.195 171.007 27.6263C171.007 27.07 171.137 26.5694 171.396 26.1244C171.668 25.6793 172.107 25.327 172.713 25.0674C173.318 24.8078 174.122 24.678 175.123 24.678H177.998V26.2171H175.29C174.499 26.2171 173.968 26.3469 173.696 26.6065C173.424 26.8537 173.288 27.1628 173.288 27.5336C173.288 27.9539 173.454 28.2877 173.788 28.5349C174.122 28.7822 174.586 28.9058 175.179 28.9058C175.748 28.9058 176.254 28.776 176.7 28.5164C177.157 28.2568 177.484 27.8736 177.682 27.3667L178.072 28.7575C177.849 29.3385 177.447 29.7897 176.866 30.1111C176.298 30.4325 175.575 30.5932 174.697 30.5932Z" fill="white"/>
<path d="M190.955 30.4634V19.523H186.653V17.4833H197.668V19.523H193.366V30.4634H190.955Z" fill="white"/>
<path d="M199.254 30.4634V20.5614H201.572V30.4634H199.254ZM200.423 18.9296C199.99 18.9296 199.631 18.7937 199.347 18.5217C199.075 18.2497 198.939 17.9221 198.939 17.5389C198.939 17.1433 199.075 16.8157 199.347 16.5561C199.631 16.2842 199.99 16.1482 200.423 16.1482C200.855 16.1482 201.208 16.278 201.48 16.5376C201.764 16.7848 201.906 17.1001 201.906 17.4833C201.906 17.8912 201.77 18.2374 201.498 18.5217C201.226 18.7937 200.868 18.9296 200.423 18.9296Z" fill="white"/>
<path d="M206.506 28.2568L206.561 25.3455L211.735 20.5614H214.516L210.122 24.9747L208.898 25.9946L206.506 28.2568ZM204.614 30.4634V16.7045H206.932V30.4634H204.614ZM212.087 30.4634L208.471 25.9946L209.936 24.1402L214.906 30.4634H212.087Z" fill="white"/>
<path d="M218.294 28.2568L218.35 25.3455L223.524 20.5614H226.305L221.91 24.9747L220.687 25.9946L218.294 28.2568ZM216.403 30.4634V16.7045H218.721V30.4634H216.403ZM223.876 30.4634L220.26 25.9946L221.725 24.1402L226.694 30.4634H223.876Z" fill="white"/>
<path d="M228.192 30.4634V20.5614H230.51V30.4634H228.192ZM229.36 18.9296C228.927 18.9296 228.569 18.7937 228.284 18.5217C228.012 18.2497 227.876 17.9221 227.876 17.5389C227.876 17.1433 228.012 16.8157 228.284 16.5561C228.569 16.2842 228.927 16.1482 229.36 16.1482C229.793 16.1482 230.145 16.278 230.417 16.5376C230.701 16.7848 230.843 17.1001 230.843 17.4833C230.843 17.8912 230.707 18.2374 230.435 18.5217C230.163 18.7937 229.805 18.9296 229.36 18.9296Z" fill="white"/>
<path d="M238.206 30.5932C237.106 30.5932 236.142 30.3769 235.313 29.9442C234.497 29.4992 233.861 28.8934 233.403 28.127C232.958 27.3606 232.736 26.489 232.736 25.5124C232.736 24.5235 232.952 23.6519 233.385 22.8979C233.83 22.1314 234.436 21.5319 235.202 21.0992C235.981 20.6665 236.865 20.4502 237.854 20.4502C238.818 20.4502 239.677 20.6603 240.431 21.0806C241.185 21.501 241.779 22.0943 242.211 22.8608C242.644 23.6272 242.86 24.5296 242.86 25.5681C242.86 25.667 242.854 25.7782 242.842 25.9018C242.842 26.0255 242.836 26.1429 242.823 26.2542H234.572V24.7151H241.599L240.691 25.1972C240.703 24.6285 240.586 24.1279 240.339 23.6952C240.091 23.2625 239.751 22.9226 239.319 22.6753C238.898 22.4281 238.41 22.3045 237.854 22.3045C237.285 22.3045 236.784 22.4281 236.352 22.6753C235.931 22.9226 235.598 23.2687 235.35 23.7138C235.116 24.1464 234.998 24.6595 234.998 25.2528V25.6237C234.998 26.2171 235.134 26.7425 235.406 27.1998C235.678 27.6572 236.061 28.0096 236.556 28.2568C237.05 28.504 237.619 28.6277 238.262 28.6277C238.818 28.6277 239.319 28.5411 239.764 28.3681C240.209 28.195 240.604 27.923 240.95 27.5522L242.193 28.98C241.748 29.4992 241.185 29.901 240.505 30.1853C239.838 30.4572 239.071 30.5932 238.206 30.5932Z" fill="white"/>
<path fill-rule="evenodd" clip-rule="evenodd" d="M39.2955 8.15283C31.7751 8.15283 25.6998 14.2493 25.6998 21.7697C25.6998 24.294 26.3825 26.6563 27.6078 28.683V29.0872C27.6078 33.6984 24.2197 35.1915 24.2197 35.1915C24.2197 35.1915 29.0091 35.2424 31.5437 32.9961H31.5454C31.5682 32.9961 31.5972 32.9635 31.6297 32.9635C31.6624 32.9635 31.6912 32.9961 31.714 32.9961H31.7167C33.8833 34.6298 36.4901 35.3432 39.2955 35.3432C46.8159 35.3432 52.9124 29.2684 52.9124 21.7479C52.9124 14.2277 46.8159 8.15283 39.2955 8.15283Z" fill="#6DDDD2"/>
<path fill-rule="evenodd" clip-rule="evenodd" d="M32.8252 23.3815C32.2911 23.3815 32.0341 23.1441 32.0341 22.6101C32.0341 22.1551 32.2911 21.8784 32.8252 21.8784H32.845V21.5025C32.845 21.285 32.845 21.0475 32.8648 20.8104H32.8252C32.2911 20.8104 32.0341 20.5729 32.0341 20.0391C32.0341 19.5841 32.2911 19.3072 32.8252 19.3072H33.0823C33.379 18.101 33.9526 17.0528 34.7831 16.1824C36.1082 14.7785 37.7695 14.0862 39.7669 14.0862C40.934 14.0862 41.9622 14.3235 42.8323 14.8179C43.7223 15.2927 44.1573 15.8661 44.1773 16.5189C44.1773 17.3693 43.6432 18.1406 42.8719 18.1604C42.4962 18.18 42.0611 18.0217 41.5667 17.7252C41.0721 17.4087 40.479 17.2506 39.7867 17.2506C38.6594 17.2506 37.7695 17.646 37.1168 18.4173C36.8993 18.6942 36.7015 18.9909 36.563 19.3072H39.589C40.0831 19.3072 40.38 19.5841 40.38 20.0391C40.38 20.5729 40.0831 20.8104 39.589 20.8104H36.1873C36.1675 21.0475 36.1476 21.285 36.1476 21.5025V21.8784H38.4417C38.9165 21.8784 39.2133 22.1551 39.2133 22.6101C39.2133 23.1441 38.9165 23.3815 38.4417 23.3815H36.4642C36.6224 23.7966 36.8399 24.1725 37.1168 24.5086C37.7695 25.28 38.6594 25.6754 39.7867 25.6754C40.479 25.6754 41.0721 25.5173 41.5667 25.2206C42.0611 24.9042 42.4962 24.7462 42.8719 24.7656C43.6432 24.7856 44.1773 25.5766 44.1773 26.3876C44.1573 27.0598 43.7223 27.6332 42.8323 28.1278C41.9622 28.6025 40.934 28.8398 39.7669 28.8398C37.7695 28.8398 36.1082 28.1477 34.7831 26.7436C33.893 25.794 33.3195 24.6669 33.023 23.3815H32.8252Z" fill="#FAFDFA"/>
</svg>
