<svg width="22" height="16" viewBox="0 0 22 16" fill="none" xmlns="http://www.w3.org/2000/svg">
<path d="M0 2.53604V4.94443H3.43933L0 2.53604ZM2.85022 15.9444H7.94444V12.3774L2.85022 15.9444ZM14.0556 12.378V15.9444H19.1492L14.0556 12.378ZM0 11.0555V13.4639L3.44056 11.0555H0ZM19.1504 0.055542H14.0556V3.6226L19.1504 0.055542ZM22 13.4645V11.0555H18.5588L22 13.4645ZM22 4.94443V2.53604L18.5601 4.94443H22ZM7.94444 0.055542H2.85022L7.94444 3.6226V0.055542Z" fill="#00247D"/>
<path d="M15.3633 11.0556L21.2984 15.2117C21.5883 14.9131 21.7966 14.5451 21.9034 14.1429L17.4943 11.0556H15.3633ZM7.94445 11.0556H6.63606L0.701558 15.2111C1.01995 15.535 1.42817 15.7666 1.88589 15.8742L7.94445 11.6319V11.0556ZM14.0556 4.94447H15.3639L21.2984 0.78891C20.9746 0.4603 20.5641 0.230371 20.1147 0.125854L14.0556 4.36819V4.94447ZM6.63606 4.94447L0.701558 0.78891C0.411863 1.08773 0.203389 1.45566 0.0959473 1.85774L4.50511 4.94447H6.63606Z" fill="#CF1B2B"/>
<path d="M22 9.83332H12.8333V15.9444H14.0556V12.378L19.1492 15.9444H19.5556C19.8802 15.9445 20.2016 15.8797 20.5009 15.7539C20.8002 15.628 21.0713 15.4437 21.2984 15.2117L15.3633 11.0555H17.4943L21.9034 14.1429C21.9603 13.9369 22 13.7237 22 13.5V13.4645L18.5588 11.0555H22V9.83332ZM0 9.83332V11.0555H3.44056L0 13.4639V13.5C0 14.1667 0.268278 14.7699 0.701556 15.2111L6.63606 11.0555H7.94444V11.6318L1.88589 15.8735C2.06556 15.9163 2.25133 15.9444 2.44444 15.9444H2.85022L7.94444 12.3774V15.9444H9.16667V9.83332H0ZM22 2.49999C22.0004 1.85953 21.7483 1.24474 21.2984 0.788875L15.3639 4.94443H14.0556V4.36815L20.1147 0.12582C19.9317 0.0809199 19.744 0.0573375 19.5556 0.0555422H19.1504L14.0556 3.6226V0.0555422H12.8333V6.16665H22V4.94443H18.5601L22 2.53604V2.49999ZM7.94444 0.0555422V3.6226L2.85022 0.0555422H2.44444C2.11971 0.0554007 1.79823 0.120206 1.49892 0.246145C1.1996 0.372084 0.9285 0.556613 0.701556 0.788875L6.63606 4.94443H4.50511L0.0959444 1.85771C0.0353101 2.06653 0.00303931 2.28256 0 2.49999L0 2.53604L3.43933 4.94443H0V6.16665H9.16667V0.0555422H7.94444Z" fill="#EEEEEE"/>
<path d="M12.8333 6.16665V0.055542H9.16667V6.16665H0V9.83332H9.16667V15.9444H12.8333V9.83332H22V6.16665H12.8333Z" fill="#CF1B2B"/>
</svg>
