<svg width="20" height="16" viewBox="0 0 20 16" fill="none" xmlns="http://www.w3.org/2000/svg">
<path d="M2 15.6723C1.45 15.6723 0.979002 15.4804 0.587002 15.0964C0.195002 14.7124 -0.000664969 14.2514 1.69779e-06 13.7133V1.95904C1.69779e-06 1.42031 0.196002 0.958953 0.588002 0.574981C0.980002 0.191008 1.45067 -0.000651351 2 1.66303e-06H18C18.55 1.66303e-06 19.021 0.191988 19.413 0.57596C19.805 0.959933 20.0007 1.42096 20 1.95904V13.7133C20 14.252 19.804 14.7134 19.412 15.0974C19.02 15.4813 18.5493 15.673 18 15.6723H2ZM10 8.8157L2 3.91809V13.7133H18V3.91809L10 8.8157ZM10 6.85665L18 1.95904H2L10 6.85665ZM2 3.91809V1.95904V13.7133V3.91809Z" fill="black"/>
</svg>
