<svg width="400" height="50" viewBox="0 0 400 50" fill="none" xmlns="http://www.w3.org/2000/svg">
<path d="M0 10.596C0 4.744 4.744 0 10.596 0H389.404C395.256 0 400 4.744 400 10.596V38.4106C400 44.2626 395.256 49.0066 389.404 49.0066H10.596C4.74401 49.0066 0 44.2626 0 38.4106V10.596Z" fill="#FFDD55"/>
<path d="M48.3771 14.5978C47.814 13.6416 47.0525 12.9564 46.0892 12.5422C45.1251 12.128 43.8169 11.9204 42.1613 11.9204H37.9534L37.9518 11.9326H32.7543L27.8146 36.2486H32.7543L34.6948 26.6958H42.3202C42.7623 26.6958 44.1685 26.2747 44.8057 25.969C45.5541 25.6103 46.2539 25.0823 46.9034 24.3867C47.553 23.6911 48.1022 22.7619 48.5492 21.6016C48.9963 20.4414 49.2202 19.2473 49.2202 18.0202C49.2202 16.6942 48.9386 15.5539 48.3771 14.5978Z" fill="#38447E"/>
<path d="M46.6943 15.4065H36.9885L34.6948 26.6961H42.3202C42.7623 26.6961 44.1685 26.2749 44.8057 25.9692C45.5541 25.6105 46.2539 25.0825 46.9034 24.3869C47.553 23.6913 48.1022 22.7621 48.5492 21.6019C48.9962 20.4416 49.2202 19.2476 49.2202 18.0205C49.2202 17.1242 49.0802 16.3201 48.8242 15.5932C48.1993 15.4803 47.4847 15.4204 46.6943 15.4065Z" fill="#212C63"/>
<path d="M52.6105 18.0717C52.0474 17.1156 51.2858 16.4304 50.3226 16.0162C49.8961 15.8338 49.3923 15.6974 48.8308 15.595L48.9419 15.9667L48.937 15.9684C49.1181 16.5954 49.2202 17.2745 49.2202 18.0205C49.2202 19.2467 48.9963 20.4408 48.5492 21.601C48.1022 22.7612 47.553 23.6896 46.9034 24.3861C46.2539 25.0825 45.5541 25.6097 44.8057 25.9683C44.1693 26.274 42.7631 26.6952 42.3202 26.6952H34.6948L32.0488 39.7216H36.9885L38.929 30.1689H46.5552C46.9973 30.1689 48.4027 29.7486 49.0399 29.4421C49.7891 29.0834 50.4889 28.5554 51.1385 27.8598C51.788 27.1642 52.3364 26.235 52.7834 25.0747C53.2304 23.9145 53.4552 22.7204 53.4552 21.4942C53.4552 20.1681 53.1736 19.0279 52.6105 18.0717Z" fill="#5FCCFF"/>
<path d="M79.8887 30.4634V17.4833H85.5629C86.9722 17.4833 88.2084 17.7553 89.2715 18.2992C90.3347 18.8431 91.1629 19.5972 91.7563 20.5614C92.3497 21.5257 92.6463 22.663 92.6463 23.9734C92.6463 25.2714 92.3497 26.4087 91.7563 27.3853C91.1629 28.3495 90.3347 29.1036 89.2715 29.6475C88.2084 30.1915 86.9722 30.4634 85.5629 30.4634H79.8887ZM82.2993 28.4237H85.4516C86.4282 28.4237 87.2689 28.2383 87.9735 27.8674C88.6905 27.4965 89.2406 26.9773 89.6238 26.3098C90.0194 25.6422 90.2172 24.8634 90.2172 23.9734C90.2172 23.0709 90.0194 22.2921 89.6238 21.6369C89.2406 20.9694 88.6905 20.4502 87.9735 20.0793C87.2689 19.7085 86.4282 19.523 85.4516 19.523H82.2993V28.4237Z" fill="black"/>
<path d="M99.4363 30.5932C98.4226 30.5932 97.5202 30.3769 96.729 29.9442C95.9378 29.4992 95.3136 28.8934 94.8562 28.127C94.3988 27.3606 94.1701 26.489 94.1701 25.5124C94.1701 24.5235 94.3988 23.6519 94.8562 22.8979C95.3136 22.1314 95.9378 21.5319 96.729 21.0992C97.5202 20.6665 98.4226 20.4502 99.4363 20.4502C100.462 20.4502 101.371 20.6665 102.162 21.0992C102.966 21.5319 103.59 22.1252 104.035 22.8793C104.492 23.6334 104.721 24.5111 104.721 25.5124C104.721 26.489 104.492 27.3606 104.035 28.127C103.59 28.8934 102.966 29.4992 102.162 29.9442C101.371 30.3769 100.462 30.5932 99.4363 30.5932ZM99.4363 28.6091C100.005 28.6091 100.512 28.4855 100.957 28.2383C101.402 27.991 101.748 27.6325 101.995 27.1628C102.255 26.693 102.385 26.1429 102.385 25.5124C102.385 24.8696 102.255 24.3195 101.995 23.8621C101.748 23.3923 101.402 23.0338 100.957 22.7866C100.512 22.5394 100.011 22.4157 99.4548 22.4157C98.8862 22.4157 98.3793 22.5394 97.9343 22.7866C97.5016 23.0338 97.1555 23.3923 96.8959 23.8621C96.6363 24.3195 96.5065 24.8696 96.5065 25.5124C96.5065 26.1429 96.6363 26.693 96.8959 27.1628C97.1555 27.6325 97.5016 27.991 97.9343 28.2383C98.3793 28.4855 98.88 28.6091 99.4363 28.6091Z" fill="black"/>
<path d="M112.556 20.4502C113.347 20.4502 114.052 20.6047 114.67 20.9138C115.3 21.2228 115.795 21.6987 116.153 22.3416C116.512 22.972 116.691 23.7879 116.691 24.7893V30.4634H114.373V25.0859C114.373 24.2082 114.163 23.553 113.743 23.1204C113.335 22.6877 112.76 22.4714 112.018 22.4714C111.474 22.4714 110.992 22.5826 110.572 22.8051C110.152 23.0277 109.824 23.3614 109.589 23.8065C109.367 24.2391 109.255 24.7893 109.255 25.4568V30.4634H106.938V20.5614H109.144V23.2316L108.755 22.4157C109.101 21.7853 109.602 21.3032 110.257 20.9694C110.924 20.6232 111.691 20.4502 112.556 20.4502Z" fill="black"/>
<path d="M124.304 30.5932C123.204 30.5932 122.24 30.3769 121.411 29.9442C120.595 29.4992 119.959 28.8934 119.501 28.127C119.056 27.3606 118.834 26.489 118.834 25.5124C118.834 24.5235 119.05 23.6519 119.483 22.8979C119.928 22.1314 120.534 21.5319 121.3 21.0992C122.079 20.6665 122.963 20.4502 123.952 20.4502C124.916 20.4502 125.775 20.6603 126.529 21.0806C127.283 21.501 127.877 22.0943 128.309 22.8608C128.742 23.6272 128.958 24.5296 128.958 25.5681C128.958 25.667 128.952 25.7782 128.94 25.9018C128.94 26.0255 128.934 26.1429 128.921 26.2542H120.67V24.7151H127.697L126.789 25.1972C126.801 24.6285 126.684 24.1279 126.436 23.6952C126.189 23.2625 125.849 22.9226 125.417 22.6753C124.996 22.4281 124.508 22.3045 123.952 22.3045C123.383 22.3045 122.882 22.4281 122.45 22.6753C122.029 22.9226 121.696 23.2687 121.448 23.7138C121.213 24.1464 121.096 24.6595 121.096 25.2528V25.6237C121.096 26.2171 121.232 26.7425 121.504 27.1998C121.776 27.6572 122.159 28.0096 122.654 28.2568C123.148 28.504 123.717 28.6277 124.36 28.6277C124.916 28.6277 125.417 28.5411 125.862 28.3681C126.307 28.195 126.702 27.923 127.048 27.5522L128.291 28.98C127.846 29.4992 127.283 29.901 126.603 30.1853C125.936 30.4572 125.169 30.5932 124.304 30.5932Z" fill="black"/>
<path d="M135.839 30.5932C134.739 30.5932 133.775 30.3769 132.946 29.9442C132.13 29.4992 131.494 28.8934 131.036 28.127C130.591 27.3606 130.369 26.489 130.369 25.5124C130.369 24.5235 130.585 23.6519 131.018 22.8979C131.463 22.1314 132.069 21.5319 132.835 21.0992C133.614 20.6665 134.498 20.4502 135.487 20.4502C136.451 20.4502 137.31 20.6603 138.064 21.0806C138.818 21.501 139.412 22.0943 139.844 22.8608C140.277 23.6272 140.493 24.5296 140.493 25.5681C140.493 25.667 140.487 25.7782 140.475 25.9018C140.475 26.0255 140.469 26.1429 140.456 26.2542H132.205V24.7151H139.232L138.324 25.1972C138.336 24.6285 138.219 24.1279 137.971 23.6952C137.724 23.2625 137.384 22.9226 136.952 22.6753C136.531 22.4281 136.043 22.3045 135.487 22.3045C134.918 22.3045 134.417 22.4281 133.985 22.6753C133.564 22.9226 133.231 23.2687 132.983 23.7138C132.749 24.1464 132.631 24.6595 132.631 25.2528V25.6237C132.631 26.2171 132.767 26.7425 133.039 27.1998C133.311 27.6572 133.694 28.0096 134.189 28.2568C134.683 28.504 135.252 28.6277 135.895 28.6277C136.451 28.6277 136.952 28.5411 137.397 28.3681C137.842 28.195 138.237 27.923 138.583 27.5522L139.826 28.98C139.381 29.4992 138.818 29.901 138.138 30.1853C137.471 30.4572 136.704 30.5932 135.839 30.5932Z" fill="black"/>
<path d="M142.72 30.4634V20.5614H144.926V23.2873L144.667 22.4899C144.964 21.8224 145.427 21.3155 146.058 20.9694C146.7 20.6232 147.498 20.4502 148.45 20.4502V22.6568C148.351 22.6321 148.258 22.6197 148.171 22.6197C148.085 22.6074 147.998 22.6012 147.912 22.6012C147.034 22.6012 146.336 22.8608 145.817 23.38C145.297 23.8868 145.038 24.6471 145.038 25.6608V30.4634H142.72Z" fill="black"/>
<path d="M158.264 30.4634L154.018 20.5614H156.428L160.081 29.2952H158.895L162.677 20.5614H164.903L160.656 30.4634H158.264Z" fill="black"/>
<path d="M166.351 30.4634V20.5614H168.669V30.4634H166.351ZM167.52 18.9296C167.087 18.9296 166.728 18.7937 166.444 18.5217C166.172 18.2497 166.036 17.9221 166.036 17.5389C166.036 17.1433 166.172 16.8157 166.444 16.5561C166.728 16.2842 167.087 16.1482 167.52 16.1482C167.952 16.1482 168.305 16.278 168.577 16.5376C168.861 16.7848 169.003 17.1001 169.003 17.4833C169.003 17.8912 168.867 18.2374 168.595 18.5217C168.323 18.7937 167.965 18.9296 167.52 18.9296Z" fill="black"/>
<path d="M177.812 30.4634V28.4608L177.682 28.0343V24.5296C177.682 23.8497 177.478 23.3244 177.07 22.9535C176.662 22.5703 176.044 22.3787 175.216 22.3787C174.66 22.3787 174.11 22.4652 173.566 22.6383C173.034 22.8113 172.583 23.0524 172.212 23.3614L171.303 21.674C171.835 21.2661 172.466 20.9632 173.195 20.7654C173.937 20.5553 174.703 20.4502 175.494 20.4502C176.928 20.4502 178.035 20.7963 178.813 21.4886C179.605 22.1685 180 23.2255 180 24.6595V30.4634H177.812ZM174.697 30.5932C173.955 30.5932 173.306 30.4696 172.75 30.2224C172.194 29.9628 171.761 29.6104 171.452 29.1654C171.155 28.708 171.007 28.195 171.007 27.6263C171.007 27.07 171.137 26.5694 171.396 26.1244C171.668 25.6793 172.107 25.327 172.713 25.0674C173.318 24.8078 174.122 24.678 175.123 24.678H177.998V26.2171H175.29C174.499 26.2171 173.968 26.3469 173.696 26.6065C173.424 26.8537 173.288 27.1628 173.288 27.5336C173.288 27.9539 173.454 28.2877 173.788 28.5349C174.122 28.7822 174.586 28.9058 175.179 28.9058C175.748 28.9058 176.254 28.776 176.7 28.5164C177.157 28.2568 177.484 27.8736 177.682 27.3667L178.072 28.7575C177.849 29.3385 177.447 29.7897 176.866 30.1111C176.298 30.4325 175.575 30.5932 174.697 30.5932Z" fill="black"/>
<path d="M188.322 30.4634V17.4833H193.662C194.812 17.4833 195.795 17.6687 196.611 18.0396C197.439 18.4104 198.076 18.942 198.521 19.6343C198.966 20.3266 199.188 21.1486 199.188 22.1005C199.188 23.0524 198.966 23.8745 198.521 24.5667C198.076 25.259 197.439 25.7906 196.611 26.1614C195.795 26.5323 194.812 26.7177 193.662 26.7177H189.657L190.733 25.5866V30.4634H188.322ZM190.733 25.8462L189.657 24.678H193.551C194.614 24.678 195.412 24.4555 195.943 24.0104C196.487 23.553 196.759 22.9164 196.759 22.1005C196.759 21.2723 196.487 20.6356 195.943 20.1906C195.412 19.7455 194.614 19.523 193.551 19.523H189.657L190.733 18.3363V25.8462Z" fill="black"/>
<path d="M207.383 30.4634V28.4608L207.253 28.0343V24.5296C207.253 23.8497 207.049 23.3244 206.641 22.9535C206.234 22.5703 205.615 22.3787 204.787 22.3787C204.231 22.3787 203.681 22.4652 203.137 22.6383C202.605 22.8113 202.154 23.0524 201.783 23.3614L200.875 21.674C201.406 21.2661 202.037 20.9632 202.766 20.7654C203.508 20.5553 204.274 20.4502 205.065 20.4502C206.499 20.4502 207.606 20.7963 208.385 21.4886C209.176 22.1685 209.571 23.2255 209.571 24.6595V30.4634H207.383ZM204.268 30.5932C203.526 30.5932 202.877 30.4696 202.321 30.2224C201.765 29.9628 201.332 29.6104 201.023 29.1654C200.726 28.708 200.578 28.195 200.578 27.6263C200.578 27.07 200.708 26.5694 200.967 26.1244C201.239 25.6793 201.678 25.327 202.284 25.0674C202.89 24.8078 203.693 24.678 204.694 24.678H207.569V26.2171H204.861C204.07 26.2171 203.539 26.3469 203.267 26.6065C202.995 26.8537 202.859 27.1628 202.859 27.5336C202.859 27.9539 203.026 28.2877 203.359 28.5349C203.693 28.7822 204.157 28.9058 204.75 28.9058C205.319 28.9058 205.826 28.776 206.271 28.5164C206.728 28.2568 207.056 27.8736 207.253 27.3667L207.643 28.7575C207.42 29.3385 207.019 29.7897 206.437 30.1111C205.869 30.4325 205.146 30.5932 204.268 30.5932Z" fill="black"/>
<path d="M213.181 34.1906C212.699 34.1906 212.217 34.1102 211.734 33.9495C211.252 33.7888 210.851 33.5663 210.529 33.282L211.456 31.576C211.691 31.7862 211.957 31.9531 212.254 32.0767C212.55 32.2003 212.853 32.2621 213.162 32.2621C213.583 32.2621 213.922 32.157 214.182 31.9469C214.442 31.7367 214.683 31.3844 214.905 30.8899L215.48 29.5919L215.666 29.3138L219.411 20.5614H221.636L217.001 31.2608C216.692 32.0025 216.345 32.5897 215.962 33.0224C215.591 33.455 215.171 33.7579 214.701 33.931C214.244 34.104 213.737 34.1906 213.181 34.1906ZM215.221 30.8157L210.752 20.5614H213.162L216.797 29.1098L215.221 30.8157Z" fill="black"/>
<path d="M223.308 30.4634V17.4833H228.648C229.798 17.4833 230.78 17.6687 231.596 18.0396C232.425 18.4104 233.061 18.942 233.506 19.6343C233.951 20.3266 234.174 21.1486 234.174 22.1005C234.174 23.0524 233.951 23.8745 233.506 24.5667C233.061 25.259 232.425 25.7906 231.596 26.1614C230.78 26.5323 229.798 26.7177 228.648 26.7177H224.643L225.718 25.5866V30.4634H223.308ZM225.718 25.8462L224.643 24.678H228.537C229.6 24.678 230.397 24.4555 230.929 24.0104C231.473 23.553 231.745 22.9164 231.745 22.1005C231.745 21.2723 231.473 20.6356 230.929 20.1906C230.397 19.7455 229.6 19.523 228.537 19.523H224.643L225.718 18.3363V25.8462Z" fill="black"/>
<path d="M242.369 30.4634V28.4608L242.239 28.0343V24.5296C242.239 23.8497 242.035 23.3244 241.627 22.9535C241.219 22.5703 240.601 22.3787 239.773 22.3787C239.216 22.3787 238.666 22.4652 238.122 22.6383C237.591 22.8113 237.14 23.0524 236.769 23.3614L235.86 21.674C236.392 21.2661 237.022 20.9632 237.751 20.7654C238.493 20.5553 239.26 20.4502 240.051 20.4502C241.485 20.4502 242.591 20.7963 243.37 21.4886C244.161 22.1685 244.557 23.2255 244.557 24.6595V30.4634H242.369ZM239.253 30.5932C238.512 30.5932 237.863 30.4696 237.306 30.2224C236.75 29.9628 236.317 29.6104 236.008 29.1654C235.712 28.708 235.563 28.195 235.563 27.6263C235.563 27.07 235.693 26.5694 235.953 26.1244C236.225 25.6793 236.664 25.327 237.269 25.0674C237.875 24.8078 238.679 24.678 239.68 24.678H242.554V26.2171H239.847C239.056 26.2171 238.524 26.3469 238.252 26.6065C237.98 26.8537 237.844 27.1628 237.844 27.5336C237.844 27.9539 238.011 28.2877 238.345 28.5349C238.679 28.7822 239.142 28.9058 239.736 28.9058C240.304 28.9058 240.811 28.776 241.256 28.5164C241.714 28.2568 242.041 27.8736 242.239 27.3667L242.628 28.7575C242.406 29.3385 242.004 29.7897 241.423 30.1111C240.854 30.4325 240.131 30.5932 239.253 30.5932Z" fill="black"/>
<path d="M247.531 30.4634V16.7045H249.849V30.4634H247.531Z" fill="black"/>
</svg>
