<svg width="400" height="50" viewBox="0 0 400 50" fill="none" xmlns="http://www.w3.org/2000/svg">
<path d="M0 10.596C0 4.744 4.744 0 10.596 0H389.404C395.256 0 400 4.744 400 10.596V38.4106C400 44.2626 395.256 49.0066 389.404 49.0066H10.596C4.74401 49.0066 0 44.2626 0 38.4106V10.596Z" fill="#413F7C"/>
<path d="M79.9814 30.4634V17.4833H91.4596V30.4634H89.0861V18.9296L89.6424 19.523H81.7987L82.355 18.9296V30.4634H79.9814Z" fill="white"/>
<path d="M99.2733 30.5932C98.2596 30.5932 97.3572 30.3769 96.566 29.9442C95.7749 29.4992 95.1506 28.8934 94.6932 28.127C94.2358 27.3606 94.0071 26.489 94.0071 25.5124C94.0071 24.5235 94.2358 23.6519 94.6932 22.8979C95.1506 22.1314 95.7749 21.5319 96.566 21.0992C97.3572 20.6665 98.2596 20.4502 99.2733 20.4502C100.299 20.4502 101.208 20.6665 101.999 21.0992C102.803 21.5319 103.427 22.1252 103.872 22.8793C104.329 23.6334 104.558 24.5111 104.558 25.5124C104.558 26.489 104.329 27.3606 103.872 28.127C103.427 28.8934 102.803 29.4992 101.999 29.9442C101.208 30.3769 100.299 30.5932 99.2733 30.5932ZM99.2733 28.6091C99.842 28.6091 100.349 28.4855 100.794 28.2383C101.239 27.991 101.585 27.6325 101.832 27.1628C102.092 26.693 102.222 26.1429 102.222 25.5124C102.222 24.8696 102.092 24.3195 101.832 23.8621C101.585 23.3923 101.239 23.0338 100.794 22.7866C100.349 22.5394 99.8481 22.4157 99.2919 22.4157C98.7232 22.4157 98.2164 22.5394 97.7713 22.7866C97.3387 23.0338 96.9925 23.3923 96.7329 23.8621C96.4733 24.3195 96.3435 24.8696 96.3435 25.5124C96.3435 26.1429 96.4733 26.693 96.7329 27.1628C96.9925 27.6325 97.3387 27.991 97.7713 28.2383C98.2164 28.4855 98.717 28.6091 99.2733 28.6091Z" fill="white"/>
<path d="M118.334 30.4634L115.441 25.7164L117.333 24.5482L121.097 30.4634H118.334ZM113.568 26.4952V24.5667H116.887V26.4952H113.568ZM117.555 25.7906L115.367 25.531L118.371 20.5614H120.837L117.555 25.7906ZM107.876 30.4634H105.131L108.877 24.5482L110.768 25.7164L107.876 30.4634ZM114.254 30.4634H111.955V20.5614H114.254V30.4634ZM112.641 26.4952H109.34V24.5667H112.641V26.4952ZM108.654 25.7906L105.372 20.5614H107.838L110.824 25.531L108.654 25.7906Z" fill="white"/>
<path d="M127.111 30.5932C126.011 30.5932 125.046 30.3769 124.218 29.9442C123.402 29.4992 122.766 28.8934 122.308 28.127C121.863 27.3606 121.641 26.489 121.641 25.5124C121.641 24.5235 121.857 23.6519 122.29 22.8979C122.735 22.1314 123.34 21.5319 124.107 21.0992C124.886 20.6665 125.769 20.4502 126.758 20.4502C127.723 20.4502 128.582 20.6603 129.336 21.0806C130.09 21.501 130.683 22.0943 131.116 22.8608C131.549 23.6272 131.765 24.5296 131.765 25.5681C131.765 25.667 131.759 25.7782 131.747 25.9018C131.747 26.0255 131.74 26.1429 131.728 26.2542H123.476V24.7151H130.504L129.596 25.1972C129.608 24.6285 129.49 24.1279 129.243 23.6952C128.996 23.2625 128.656 22.9226 128.223 22.6753C127.803 22.4281 127.315 22.3045 126.758 22.3045C126.19 22.3045 125.689 22.4281 125.256 22.6753C124.836 22.9226 124.502 23.2687 124.255 23.7138C124.02 24.1464 123.903 24.6595 123.903 25.2528V25.6237C123.903 26.2171 124.039 26.7425 124.311 27.1998C124.583 27.6572 124.966 28.0096 125.46 28.2568C125.955 28.504 126.524 28.6277 127.166 28.6277C127.723 28.6277 128.223 28.5411 128.668 28.3681C129.113 28.195 129.509 27.923 129.855 27.5522L131.098 28.98C130.652 29.4992 130.09 29.901 129.41 30.1853C128.743 30.4572 127.976 30.5932 127.111 30.5932Z" fill="white"/>
<path d="M139.789 30.5932C138.985 30.5932 138.25 30.4078 137.582 30.0369C136.927 29.6661 136.402 29.1098 136.006 28.3681C135.623 27.614 135.431 26.6621 135.431 25.5124C135.431 24.3504 135.617 23.3985 135.988 22.6568C136.371 21.9151 136.89 21.365 137.545 21.0065C138.2 20.6356 138.948 20.4502 139.789 20.4502C140.766 20.4502 141.625 20.6603 142.366 21.0806C143.121 21.501 143.714 22.0881 144.147 22.8422C144.592 23.5963 144.814 24.4864 144.814 25.5124C144.814 26.5385 144.592 27.4347 144.147 28.2012C143.714 28.9553 143.121 29.5425 142.366 29.9628C141.625 30.3831 140.766 30.5932 139.789 30.5932ZM134.3 34.0608V20.5614H136.507V22.8979L136.433 25.531L136.618 28.1641V34.0608H134.3ZM139.529 28.6091C140.086 28.6091 140.58 28.4855 141.013 28.2383C141.458 27.991 141.81 27.6325 142.07 27.1628C142.329 26.693 142.459 26.1429 142.459 25.5124C142.459 24.8696 142.329 24.3195 142.07 23.8621C141.81 23.3923 141.458 23.0338 141.013 22.7866C140.58 22.5394 140.086 22.4157 139.529 22.4157C138.973 22.4157 138.472 22.5394 138.027 22.7866C137.582 23.0338 137.23 23.3923 136.97 23.8621C136.711 24.3195 136.581 24.8696 136.581 25.5124C136.581 26.1429 136.711 26.693 136.97 27.1628C137.23 27.6325 137.582 27.991 138.027 28.2383C138.472 28.4855 138.973 28.6091 139.529 28.6091Z" fill="white"/>
<path d="M148.817 30.4634V21.9707L149.355 22.527H145.331V20.5614H154.603V22.527H150.597L151.135 21.9707V30.4634H148.817Z" fill="white"/>
<path d="M156.284 30.4634V20.5614H161.124C162.323 20.5614 163.262 20.784 163.942 21.229C164.634 21.674 164.981 22.3045 164.981 23.1204C164.981 23.9239 164.659 24.5544 164.016 25.0118C163.374 25.4568 162.521 25.6793 161.457 25.6793L161.736 25.1045C162.935 25.1045 163.825 25.327 164.406 25.772C164.999 26.2047 165.296 26.8414 165.296 27.682C165.296 28.5597 164.968 29.2458 164.313 29.7402C163.658 30.2224 162.663 30.4634 161.328 30.4634H156.284ZM158.491 28.776H161.142C161.773 28.776 162.249 28.6771 162.57 28.4793C162.891 28.2692 163.052 27.9539 163.052 27.5336C163.052 27.0886 162.904 26.761 162.607 26.5508C162.31 26.3407 161.847 26.2356 161.216 26.2356H158.491V28.776ZM158.491 24.6965H160.92C161.513 24.6965 161.958 24.5915 162.255 24.3813C162.564 24.1588 162.718 23.8497 162.718 23.4542C162.718 23.0462 162.564 22.7433 162.255 22.5455C161.958 22.3478 161.513 22.2489 160.92 22.2489H158.491V24.6965Z" fill="white"/>
<path d="M172.178 30.5932C171.164 30.5932 170.262 30.3769 169.471 29.9442C168.679 29.4992 168.055 28.8934 167.598 28.127C167.14 27.3606 166.912 26.489 166.912 25.5124C166.912 24.5235 167.14 23.6519 167.598 22.8979C168.055 22.1314 168.679 21.5319 169.471 21.0992C170.262 20.6665 171.164 20.4502 172.178 20.4502C173.204 20.4502 174.113 20.6665 174.904 21.0992C175.707 21.5319 176.332 22.1252 176.777 22.8793C177.234 23.6334 177.463 24.5111 177.463 25.5124C177.463 26.489 177.234 27.3606 176.777 28.127C176.332 28.8934 175.707 29.4992 174.904 29.9442C174.113 30.3769 173.204 30.5932 172.178 30.5932ZM172.178 28.6091C172.747 28.6091 173.253 28.4855 173.698 28.2383C174.143 27.991 174.49 27.6325 174.737 27.1628C174.996 26.693 175.126 26.1429 175.126 25.5124C175.126 24.8696 174.996 24.3195 174.737 23.8621C174.49 23.3923 174.143 23.0338 173.698 22.7866C173.253 22.5394 172.753 22.4157 172.196 22.4157C171.628 22.4157 171.121 22.5394 170.676 22.7866C170.243 23.0338 169.897 23.3923 169.638 23.8621C169.378 24.3195 169.248 24.8696 169.248 25.5124C169.248 26.1429 169.378 26.693 169.638 27.1628C169.897 27.6325 170.243 27.991 170.676 28.2383C171.121 28.4855 171.622 28.6091 172.178 28.6091Z" fill="white"/>
<path d="M179.752 30.4634V20.5614H184.592C185.791 20.5614 186.731 20.784 187.411 21.229C188.103 21.674 188.449 22.3045 188.449 23.1204C188.449 23.9239 188.128 24.5544 187.485 25.0118C186.842 25.4568 185.989 25.6793 184.926 25.6793L185.204 25.1045C186.403 25.1045 187.293 25.327 187.874 25.772C188.468 26.2047 188.764 26.8414 188.764 27.682C188.764 28.5597 188.437 29.2458 187.782 29.7402C187.126 30.2224 186.131 30.4634 184.796 30.4634H179.752ZM181.959 28.776H184.611C185.241 28.776 185.717 28.6771 186.039 28.4793C186.36 28.2692 186.521 27.9539 186.521 27.5336C186.521 27.0886 186.372 26.761 186.076 26.5508C185.779 26.3407 185.315 26.2356 184.685 26.2356H181.959V28.776ZM181.959 24.6965H184.388C184.982 24.6965 185.427 24.5915 185.723 24.3813C186.032 24.1588 186.187 23.8497 186.187 23.4542C186.187 23.0462 186.032 22.7433 185.723 22.5455C185.427 22.3478 184.982 22.2489 184.388 22.2489H181.959V24.6965Z" fill="white"/>
<path d="M197.241 30.4634V28.4608L197.111 28.0343V24.5296C197.111 23.8497 196.907 23.3244 196.499 22.9535C196.091 22.5703 195.473 22.3787 194.645 22.3787C194.089 22.3787 193.539 22.4652 192.995 22.6383C192.463 22.8113 192.012 23.0524 191.641 23.3614L190.733 21.674C191.264 21.2661 191.895 20.9632 192.624 20.7654C193.366 20.5553 194.132 20.4502 194.923 20.4502C196.357 20.4502 197.464 20.7963 198.242 21.4886C199.034 22.1685 199.429 23.2255 199.429 24.6595V30.4634H197.241ZM194.126 30.5932C193.384 30.5932 192.735 30.4696 192.179 30.2224C191.623 29.9628 191.19 29.6104 190.881 29.1654C190.584 28.708 190.436 28.195 190.436 27.6263C190.436 27.07 190.566 26.5694 190.825 26.1244C191.097 25.6793 191.536 25.327 192.142 25.0674C192.748 24.8078 193.551 24.678 194.552 24.678H197.427V26.2171H194.719C193.928 26.2171 193.397 26.3469 193.125 26.6065C192.853 26.8537 192.717 27.1628 192.717 27.5336C192.717 27.9539 192.884 28.2877 193.217 28.5349C193.551 28.7822 194.015 28.9058 194.608 28.9058C195.177 28.9058 195.684 28.776 196.129 28.5164C196.586 28.2568 196.914 27.8736 197.111 27.3667L197.501 28.7575C197.278 29.3385 196.876 29.7897 196.295 30.1111C195.727 30.4325 195.004 30.5932 194.126 30.5932Z" fill="white"/>
<path d="M204.356 30.4634V21.9707L204.893 22.527H200.87V20.5614H210.141V22.527H206.136L206.674 21.9707V30.4634H204.356Z" fill="white"/>
<path d="M216.792 23.825C218.065 23.825 219.036 24.1093 219.703 24.678C220.371 25.2466 220.705 26.0502 220.705 27.0886C220.705 28.1641 220.334 29.0047 219.592 29.6104C218.85 30.2038 217.806 30.4943 216.458 30.482L211.823 30.4634V20.5614H214.14V23.8065L216.792 23.825ZM216.254 28.776C216.934 28.7884 217.453 28.6462 217.812 28.3495C218.17 28.0528 218.35 27.6202 218.35 27.0515C218.35 26.4829 218.17 26.0749 217.812 25.8277C217.466 25.5681 216.947 25.4321 216.254 25.4197L214.14 25.4012V28.7575L216.254 28.776Z" fill="white"/>
<path d="M234.116 26.5508C233.646 26.7734 233.145 26.9588 232.614 27.1071C232.094 27.2431 231.544 27.3111 230.963 27.3111C229.715 27.3111 228.744 27.0206 228.052 26.4396C227.36 25.8586 227.014 24.9561 227.014 23.7323V20.5614H229.331V23.584C229.331 24.2391 229.517 24.7151 229.888 25.0118C230.271 25.3085 230.796 25.4568 231.464 25.4568C231.909 25.4568 232.354 25.4012 232.799 25.2899C233.244 25.1787 233.683 25.0241 234.116 24.8263V26.5508ZM233.949 30.4634V20.5614H236.267V30.4634H233.949Z" fill="white"/>
<path d="M244.001 30.5932C242.901 30.5932 241.936 30.3769 241.108 29.9442C240.292 29.4992 239.656 28.8934 239.198 28.127C238.753 27.3606 238.531 26.489 238.531 25.5124C238.531 24.5235 238.747 23.6519 239.18 22.8979C239.625 22.1314 240.23 21.5319 240.997 21.0992C241.776 20.6665 242.659 20.4502 243.648 20.4502C244.613 20.4502 245.472 20.6603 246.226 21.0806C246.98 21.501 247.573 22.0943 248.006 22.8608C248.439 23.6272 248.655 24.5296 248.655 25.5681C248.655 25.667 248.649 25.7782 248.637 25.9018C248.637 26.0255 248.63 26.1429 248.618 26.2542H240.366V24.7151H247.394L246.486 25.1972C246.498 24.6285 246.38 24.1279 246.133 23.6952C245.886 23.2625 245.546 22.9226 245.113 22.6753C244.693 22.4281 244.205 22.3045 243.648 22.3045C243.08 22.3045 242.579 22.4281 242.146 22.6753C241.726 22.9226 241.392 23.2687 241.145 23.7138C240.91 24.1464 240.793 24.6595 240.793 25.2528V25.6237C240.793 26.2171 240.929 26.7425 241.201 27.1998C241.473 27.6572 241.856 28.0096 242.35 28.2568C242.845 28.504 243.414 28.6277 244.056 28.6277C244.613 28.6277 245.113 28.5411 245.558 28.3681C246.003 28.195 246.399 27.923 246.745 27.5522L247.988 28.98C247.542 29.4992 246.98 29.901 246.3 30.1853C245.633 30.4572 244.866 30.5932 244.001 30.5932Z" fill="white"/>
<path d="M256.679 30.5932C255.875 30.5932 255.14 30.4078 254.472 30.0369C253.817 29.6661 253.292 29.1098 252.896 28.3681C252.513 27.614 252.321 26.6621 252.321 25.5124C252.321 24.3504 252.507 23.3985 252.878 22.6568C253.261 21.9151 253.78 21.365 254.435 21.0065C255.09 20.6356 255.838 20.4502 256.679 20.4502C257.656 20.4502 258.515 20.6603 259.256 21.0806C260.011 21.501 260.604 22.0881 261.037 22.8422C261.482 23.5963 261.704 24.4864 261.704 25.5124C261.704 26.5385 261.482 27.4347 261.037 28.2012C260.604 28.9553 260.011 29.5425 259.256 29.9628C258.515 30.3831 257.656 30.5932 256.679 30.5932ZM251.19 34.0608V20.5614H253.397V22.8979L253.323 25.531L253.508 28.1641V34.0608H251.19ZM256.419 28.6091C256.976 28.6091 257.47 28.4855 257.903 28.2383C258.348 27.991 258.7 27.6325 258.96 27.1628C259.219 26.693 259.349 26.1429 259.349 25.5124C259.349 24.8696 259.219 24.3195 258.96 23.8621C258.7 23.3923 258.348 23.0338 257.903 22.7866C257.47 22.5394 256.976 22.4157 256.419 22.4157C255.863 22.4157 255.362 22.5394 254.917 22.7866C254.472 23.0338 254.12 23.3923 253.86 23.8621C253.601 24.3195 253.471 24.8696 253.471 25.5124C253.471 26.1429 253.601 26.693 253.86 27.1628C254.12 27.6325 254.472 27.991 254.917 28.2383C255.362 28.4855 255.863 28.6091 256.419 28.6091Z" fill="white"/>
<path d="M268.628 30.5932C267.528 30.5932 266.564 30.3769 265.736 29.9442C264.92 29.4992 264.283 28.8934 263.826 28.127C263.381 27.3606 263.158 26.489 263.158 25.5124C263.158 24.5235 263.374 23.6519 263.807 22.8979C264.252 22.1314 264.858 21.5319 265.624 21.0992C266.403 20.6665 267.287 20.4502 268.276 20.4502C269.24 20.4502 270.099 20.6603 270.853 21.0806C271.607 21.501 272.201 22.0943 272.634 22.8608C273.066 23.6272 273.283 24.5296 273.283 25.5681C273.283 25.667 273.276 25.7782 273.264 25.9018C273.264 26.0255 273.258 26.1429 273.245 26.2542H264.994V24.7151H272.022L271.113 25.1972C271.125 24.6285 271.008 24.1279 270.761 23.6952C270.513 23.2625 270.174 22.9226 269.741 22.6753C269.321 22.4281 268.832 22.3045 268.276 22.3045C267.707 22.3045 267.207 22.4281 266.774 22.6753C266.354 22.9226 266.02 23.2687 265.773 23.7138C265.538 24.1464 265.42 24.6595 265.42 25.2528V25.6237C265.42 26.2171 265.556 26.7425 265.828 27.1998C266.1 27.6572 266.483 28.0096 266.978 28.2568C267.472 28.504 268.041 28.6277 268.684 28.6277C269.24 28.6277 269.741 28.5411 270.186 28.3681C270.631 28.195 271.026 27.923 271.373 27.5522L272.615 28.98C272.17 29.4992 271.607 29.901 270.928 30.1853C270.26 30.4572 269.494 30.5932 268.628 30.5932Z" fill="white"/>
<path d="M278.789 30.6303C278.034 30.6303 277.287 30.5438 276.545 30.3707C275.815 30.1853 275.154 29.9257 274.561 29.5919L275.21 27.8674C275.692 28.1394 276.236 28.3495 276.842 28.4979C277.447 28.6462 278.053 28.7204 278.659 28.7204C279.178 28.7204 279.623 28.6709 279.994 28.572C280.365 28.4608 280.649 28.3001 280.847 28.0899C281.057 27.8798 281.162 27.6387 281.162 27.3667C281.162 26.9712 280.989 26.6745 280.643 26.4767C280.309 26.2665 279.827 26.1614 279.196 26.1614H277.287V24.6038H279.011C279.407 24.6038 279.74 24.5606 280.012 24.474C280.297 24.3875 280.513 24.2577 280.661 24.0846C280.81 23.9115 280.884 23.7076 280.884 23.4727C280.884 23.2378 280.791 23.0338 280.606 22.8608C280.433 22.6753 280.179 22.5394 279.845 22.4528C279.512 22.3539 279.11 22.3045 278.64 22.3045C278.146 22.3045 277.633 22.3663 277.101 22.4899C276.582 22.6135 276.05 22.7928 275.506 23.0277L274.913 21.3217C275.544 21.0374 276.155 20.821 276.749 20.6727C277.355 20.512 277.954 20.4255 278.547 20.4131C279.45 20.376 280.253 20.4687 280.958 20.6912C281.663 20.9138 282.219 21.2352 282.627 21.6555C283.035 22.0758 283.239 22.5703 283.239 23.1389C283.239 23.6087 283.091 24.0352 282.794 24.4184C282.51 24.7893 282.114 25.0798 281.607 25.2899C281.113 25.5001 280.544 25.6051 279.901 25.6051L279.975 25.1045C281.076 25.1045 281.941 25.327 282.571 25.772C283.202 26.2047 283.517 26.7981 283.517 27.5522C283.517 28.1579 283.313 28.6957 282.905 29.1654C282.497 29.6228 281.935 29.9813 281.218 30.2409C280.513 30.5005 279.703 30.6303 278.789 30.6303Z" fill="white"/>
<path d="M293.847 30.4634V19.523H289.545V17.4833H300.56V19.523H296.258V30.4634H293.847Z" fill="white"/>
<path d="M302.147 30.4634V20.5614H304.464V30.4634H302.147ZM303.315 18.9296C302.882 18.9296 302.524 18.7937 302.239 18.5217C301.967 18.2497 301.831 17.9221 301.831 17.5389C301.831 17.1433 301.967 16.8157 302.239 16.5561C302.524 16.2842 302.882 16.1482 303.315 16.1482C303.747 16.1482 304.1 16.278 304.372 16.5376C304.656 16.7848 304.798 17.1001 304.798 17.4833C304.798 17.8912 304.662 18.2374 304.39 18.5217C304.118 18.7937 303.76 18.9296 303.315 18.9296Z" fill="white"/>
<path d="M309.398 28.2568L309.454 25.3455L314.627 20.5614H317.409L313.014 24.9747L311.79 25.9946L309.398 28.2568ZM307.507 30.4634V16.7045H309.825V30.4634H307.507ZM314.979 30.4634L311.364 25.9946L312.829 24.1402L317.798 30.4634H314.979Z" fill="white"/>
<path d="M321.187 28.2568L321.242 25.3455L326.416 20.5614H329.197L324.803 24.9747L323.579 25.9946L321.187 28.2568ZM319.295 30.4634V16.7045H321.613V30.4634H319.295ZM326.768 30.4634L323.152 25.9946L324.617 24.1402L329.587 30.4634H326.768Z" fill="white"/>
<path d="M331.084 30.4634V20.5614H333.402V30.4634H331.084ZM332.252 18.9296C331.819 18.9296 331.461 18.7937 331.177 18.5217C330.905 18.2497 330.769 17.9221 330.769 17.5389C330.769 17.1433 330.905 16.8157 331.177 16.5561C331.461 16.2842 331.819 16.1482 332.252 16.1482C332.685 16.1482 333.037 16.278 333.309 16.5376C333.593 16.7848 333.735 17.1001 333.735 17.4833C333.735 17.8912 333.6 18.2374 333.328 18.5217C333.056 18.7937 332.697 18.9296 332.252 18.9296Z" fill="white"/>
<path d="M341.098 30.5932C339.998 30.5932 339.034 30.3769 338.206 29.9442C337.39 29.4992 336.753 28.8934 336.296 28.127C335.851 27.3606 335.628 26.489 335.628 25.5124C335.628 24.5235 335.844 23.6519 336.277 22.8979C336.722 22.1314 337.328 21.5319 338.094 21.0992C338.873 20.6665 339.757 20.4502 340.746 20.4502C341.71 20.4502 342.569 20.6603 343.323 21.0806C344.077 21.501 344.671 22.0943 345.104 22.8608C345.536 23.6272 345.753 24.5296 345.753 25.5681C345.753 25.667 345.746 25.7782 345.734 25.9018C345.734 26.0255 345.728 26.1429 345.715 26.2542H337.464V24.7151H344.492L343.583 25.1972C343.595 24.6285 343.478 24.1279 343.231 23.6952C342.983 23.2625 342.643 22.9226 342.211 22.6753C341.791 22.4281 341.302 22.3045 340.746 22.3045C340.177 22.3045 339.677 22.4281 339.244 22.6753C338.824 22.9226 338.49 23.2687 338.243 23.7138C338.008 24.1464 337.89 24.6595 337.89 25.2528V25.6237C337.89 26.2171 338.026 26.7425 338.298 27.1998C338.57 27.6572 338.953 28.0096 339.448 28.2568C339.942 28.504 340.511 28.6277 341.154 28.6277C341.71 28.6277 342.211 28.5411 342.656 28.3681C343.101 28.195 343.496 27.923 343.843 27.5522L345.085 28.98C344.64 29.4992 344.077 29.901 343.398 30.1853C342.73 30.4572 341.964 30.5932 341.098 30.5932Z" fill="white"/>
<path fill-rule="evenodd" clip-rule="evenodd" d="M39.2955 8.15283C31.7751 8.15283 25.6998 14.2493 25.6998 21.7697C25.6998 24.294 26.3825 26.6563 27.6078 28.683V29.0872C27.6078 33.6984 24.2197 35.1915 24.2197 35.1915C24.2197 35.1915 29.009 35.2424 31.5437 32.9961H31.5453C31.5682 32.9961 31.5972 32.9635 31.6297 32.9635C31.6623 32.9635 31.6911 32.9961 31.714 32.9961H31.7167C33.8833 34.6298 36.4901 35.3432 39.2955 35.3432C46.8158 35.3432 52.9124 29.2684 52.9124 21.7479C52.9124 14.2277 46.8158 8.15283 39.2955 8.15283Z" fill="#6DDDD2"/>
<path fill-rule="evenodd" clip-rule="evenodd" d="M32.8251 23.3815C32.2911 23.3815 32.034 23.1441 32.034 22.6101C32.034 22.1551 32.2911 21.8784 32.8251 21.8784H32.8449V21.5025C32.8449 21.285 32.8449 21.0475 32.8647 20.8104H32.8251C32.2911 20.8104 32.034 20.5729 32.034 20.0391C32.034 19.5841 32.2911 19.3072 32.8251 19.3072H33.0822C33.3789 18.101 33.9526 17.0528 34.7831 16.1824C36.1082 14.7785 37.7695 14.0862 39.7668 14.0862C40.934 14.0862 41.9621 14.3235 42.8322 14.8179C43.7223 15.2927 44.1573 15.8661 44.1772 16.5189C44.1772 17.3693 43.6432 18.1406 42.8719 18.1604C42.4961 18.18 42.0611 18.0217 41.5667 17.7252C41.0721 17.4087 40.479 17.2506 39.7866 17.2506C38.6594 17.2506 37.7695 17.646 37.1168 18.4173C36.8993 18.6942 36.7015 18.9909 36.563 19.3072H39.589C40.0831 19.3072 40.38 19.5841 40.38 20.0391C40.38 20.5729 40.0831 20.8104 39.589 20.8104H36.1873C36.1674 21.0475 36.1476 21.285 36.1476 21.5025V21.8784H38.4417C38.9165 21.8784 39.2132 22.1551 39.2132 22.6101C39.2132 23.1441 38.9165 23.3815 38.4417 23.3815H36.4642C36.6224 23.7966 36.8399 24.1725 37.1168 24.5086C37.7695 25.28 38.6594 25.6754 39.7866 25.6754C40.479 25.6754 41.0721 25.5173 41.5667 25.2206C42.0611 24.9042 42.4961 24.7462 42.8719 24.7656C43.6432 24.7856 44.1772 25.5766 44.1772 26.3876C44.1573 27.0598 43.7223 27.6332 42.8322 28.1278C41.9621 28.6025 40.934 28.8398 39.7668 28.8398C37.7695 28.8398 36.1082 28.1477 34.7831 26.7436C33.8929 25.794 33.3195 24.6669 33.023 23.3815H32.8251Z" fill="#FAFDFA"/>
</svg>
